<svg width="1413" height="372" viewBox="0 0 1413 372" fill="none" xmlns="http://www.w3.org/2000/svg">
<path fill-rule="evenodd" clip-rule="evenodd" d="M1413 284.693C1413 277.977 1412.23 271.283 1410.69 264.745L1408.4 255.001C1398.81 214.136 1374.34 177.606 1334.85 163.397C1281.96 144.37 1210.78 130.282 1149.55 134.574C1136.78 135.469 1123.96 135.806 1111.16 135.672C1023.37 134.758 935.585 175.512 847.8 152.817C753.6 128.463 659.4 31.0489 565.2 6.6952C471 -17.6585 376.8 31.0489 282.6 47.2846C188.4 63.5204 94.2 47.2846 47.1 39.1667C22.4934 34.9257 0 53.8739 0 78.8433V324.9C0 350.913 21.0874 372 47.1 372C94.2 372 188.4 372 282.6 372C376.8 372 471 372 565.2 372C659.4 372 753.6 372 847.8 372C942 372 1036.2 372 1130.4 372C1224.6 372 1318.8 372 1365.9 372C1391.91 372 1413 350.913 1413 324.9V284.693Z" fill="#FF7A00"/>
</svg>
