<svg width="603" height="529" viewBox="0 0 603 529" fill="none" xmlns="http://www.w3.org/2000/svg">
<path d="M218.766 102.416C211.302 102.829 203.954 105.884 198.25 111.583C185.952 123.873 185.952 143.796 198.25 156.086C204.4 162.23 212.458 165.302 220.519 165.302C228.578 165.302 236.639 162.23 242.787 156.086C248.489 150.387 251.548 143.045 251.961 135.585L218.766 102.416ZM211.685 144.348H205.448L212.059 133.337L215.094 138.388L211.685 144.348ZM214.706 144.348L225.181 126.033L235.655 144.348H214.706ZM245.251 132.588C243.234 132.239 241.26 131.675 239.345 130.9C235.767 129.449 232.554 127.317 229.797 124.564C226.84 121.609 224.608 118.144 223.16 114.264C222.534 112.583 222.069 110.866 221.766 109.12L245.251 132.588ZM246.956 145.442C245.516 148.719 243.487 151.676 240.931 154.232C238.175 156.986 234.962 159.118 231.384 160.568C227.923 161.97 224.27 162.68 220.519 162.68C216.768 162.68 213.113 161.97 209.654 160.568C206.074 159.118 202.863 156.986 200.107 154.232C197.351 151.477 195.215 148.267 193.765 144.691C192.362 141.234 191.651 137.582 191.651 133.835C191.651 130.087 192.361 126.435 193.765 122.978C195.215 119.402 197.351 116.192 200.107 113.437C202.663 110.882 205.623 108.857 208.901 107.419C211.721 106.182 214.694 105.411 217.763 105.121L218.781 106.138C219.132 111.775 220.995 117.337 224.37 122.164L216.584 135.778L212.059 128.24L200.812 146.971H210.184H223.306H240.176L228.999 127.425C234.48 132.423 241.298 135.137 248.235 135.57L249.255 136.589C248.965 139.654 248.193 142.627 246.956 145.442Z" fill="url(#paint0_linear_1063_566)" style="mix-blend-mode:multiply"/>
<path d="M489.088 89.8359L473.718 107.819L472.317 109.458L456.946 127.44L489.872 155.542L505.243 137.559L506.644 135.92L522.015 117.938L489.088 89.8359ZM489.642 152.632L459.857 127.212L473.887 110.797L503.672 136.218L489.642 152.632ZM475.287 109.159L489.317 92.7446L519.103 118.165L505.073 134.579L475.287 109.159L475.287 109.159Z" fill="white"/>
<path d="M492.946 107.863L493.628 103.779L483.859 107.054L487.219 109.922L491.924 113.938L497.969 119.097L500.632 105.106L492.946 107.863ZM487.971 107.851L491.029 106.82L490.719 108.668L489.455 109.117L487.971 107.851ZM491.261 110.659L497.931 108.265L496.608 115.223L491.261 110.659Z" fill="white"/>
<path d="M495.853 119.996L483.307 109.289C482.877 108.922 482.222 108.974 481.851 109.407C481.485 109.835 481.536 110.491 481.966 110.857L494.512 121.565C494.946 121.935 495.595 121.878 495.961 121.45C496.332 121.016 496.287 120.367 495.853 119.996Z" fill="white"/>
<path d="M467.903 127.308C467.474 126.941 466.823 126.988 466.453 127.421C466.082 127.854 466.139 128.504 466.568 128.87C467.002 129.24 467.652 129.195 468.023 128.761C468.393 128.328 468.337 127.678 467.903 127.308Z" fill="white"/>
<path d="M471.04 129.983C470.612 129.617 469.961 129.663 469.591 130.097C469.22 130.53 469.277 131.179 469.705 131.545C470.139 131.915 470.789 131.869 471.16 131.436C471.53 131.002 471.474 130.353 471.04 129.983Z" fill="white"/>
<path d="M474.181 132.664C473.747 132.293 473.096 132.34 472.726 132.773C472.355 133.207 472.412 133.856 472.846 134.226C473.274 134.591 473.924 134.546 474.295 134.112C474.665 133.679 474.609 133.029 474.181 132.664Z" fill="white"/>
<path d="M477.312 135.34C476.878 134.97 476.227 135.016 475.857 135.449C475.486 135.883 475.543 136.532 475.977 136.902C476.404 137.267 477.054 137.221 477.425 136.788C477.795 136.354 477.739 135.704 477.312 135.34Z" fill="white"/>
<path d="M480.453 138.015C480.019 137.644 479.373 137.695 479.002 138.128C478.632 138.562 478.684 139.207 479.117 139.577C479.551 139.947 480.195 139.896 480.565 139.462C480.936 139.029 480.887 138.385 480.453 138.015Z" fill="white"/>
<path d="M476.526 131.953L482.57 137.112L485.228 123.127L477.542 125.884L478.23 121.794L468.46 125.07L471.82 127.938L476.526 131.954L476.526 131.953ZM481.205 133.243L475.858 128.679L482.527 126.287L481.205 133.243ZM472.568 125.871L475.625 124.841L475.32 126.683L474.051 127.138L472.568 125.871L472.568 125.871Z" fill="white"/>
<path d="M511.92 122.938C511.876 122.372 511.377 121.947 510.811 121.991L505.67 122.401L505.508 120.346C505.463 119.78 504.965 119.354 504.398 119.399C503.832 119.443 503.411 119.936 503.451 120.507L503.693 123.585C503.742 124.155 504.236 124.576 504.802 124.532L510.973 124.047C511.539 124.002 511.965 123.504 511.92 122.938Z" fill="white"/>
<path d="M488.404 141.471C488.454 142.041 488.943 142.468 489.514 142.418L489.518 142.422L491.571 142.256L491.733 144.312C491.777 144.878 492.276 145.303 492.842 145.259C493.409 145.214 493.83 144.721 493.79 144.15L493.623 142.1L495.68 141.938C496.247 141.894 496.673 141.395 496.627 140.83C496.583 140.264 496.084 139.839 495.518 139.883L493.462 140.044L493.304 137.993L493.299 137.989C493.255 137.424 492.761 137.002 492.19 137.043C491.624 137.087 491.198 137.585 491.243 138.151L491.405 140.206L489.352 140.363C488.781 140.412 488.36 140.905 488.404 141.471Z" fill="white"/>
<path d="M451.966 317.843L453.215 314.716L453.631 313.673L454.047 312.632C451.198 311.496 449.814 308.232 450.962 305.359C452.109 302.486 455.36 301.073 458.21 302.209L458.626 301.167L459.042 300.125L460.291 296.998L457.852 279.11L444.82 278.746L444.389 285.824L420.621 276.345L408.966 305.528L432.734 315.006L428.169 320.435L437.872 329.136L451.966 317.843ZM431.272 320.204L434.431 316.448L436.434 314.064L433.566 312.921L411.866 304.267L421.856 279.254L443.557 287.908L446.424 289.051L446.613 285.946L446.911 281.047L455.9 281.298L458.003 296.727L456.854 299.603C453.508 299.309 450.215 301.231 448.895 304.535C447.575 307.84 448.639 311.5 451.269 313.588L450.12 316.464L437.963 326.206L431.272 320.204Z" fill="url(#paint1_linear_1063_566)" style="mix-blend-mode:multiply"/>
<path d="M434.648 296.934L438.582 296.28L432.613 288.376L431.028 292.346L428.807 297.905L425.953 305.052L439.512 303.093L434.648 296.934ZM433.209 292.882L434.566 294.678L433.064 294.928L432.618 294.362L433.209 292.882L433.209 292.882ZM431.659 296.763L435.347 301.432L429.454 302.284L431.659 296.763Z" fill="url(#paint2_linear_1063_566)" style="mix-blend-mode:multiply"/>
<g clip-path="url(#clip0_1063_566)">
<path d="M367.043 62.9772L351.351 46.7158L363.243 34.3925C365.613 31.9368 365.613 27.9549 363.243 25.4991C362.057 24.2709 360.505 23.6567 358.952 23.6567C357.399 23.6567 355.845 24.2709 354.66 25.4991L342.768 37.8224L327.077 21.561L318.494 30.4544L334.185 46.7158L320.516 60.8807V69.7749H329.099L342.768 55.6092L358.46 71.8706L367.043 62.9772ZM349.92 45.2334L347.781 43.0165L356.813 33.6579L358.952 35.8749L349.92 45.2334ZM356.091 26.9807C356.855 26.1892 357.87 25.7532 358.952 25.7532C360.032 25.7532 361.048 26.1893 361.813 26.9807C363.389 28.6159 363.389 31.2758 361.813 32.9102L360.382 34.3925L354.66 28.4631L356.091 26.9807ZM353.23 29.9454L355.381 32.1755L346.351 41.534L344.198 39.3047L353.23 29.9454ZM327.077 24.5258L329.895 27.446L328.463 28.9283C328.069 29.3375 328.069 30.0015 328.463 30.4107C328.859 30.8199 329.499 30.8199 329.895 30.4107C329.895 30.4107 329.895 30.4099 329.896 30.4091L331.324 28.9283L334.185 31.8931L332.756 33.3754C332.36 33.7846 332.36 34.4486 332.756 34.8578C333.15 35.2669 333.791 35.2669 334.185 34.8578C334.185 34.857 334.185 34.857 334.185 34.857L335.617 33.3754L338.478 36.3402L337.048 37.8209C337.048 37.8209 337.046 37.8217 337.046 37.8225C336.652 38.2317 336.652 38.8949 337.046 39.3041C337.442 39.714 338.082 39.714 338.478 39.3041V39.3049L339.907 37.8225L342.768 40.7864L341.339 42.2687C340.943 42.6787 340.943 43.3419 341.339 43.7511C341.733 44.1602 342.373 44.1602 342.768 43.7511L344.198 42.2687L347.059 45.2334L345.629 46.7158C345.234 47.125 345.234 47.789 345.629 48.1982C346.023 48.6073 346.665 48.6073 347.059 48.1982C347.061 48.1974 347.061 48.1974 347.061 48.1974L348.49 46.7158L351.351 49.6805L349.92 51.1621V51.1629C349.526 51.5721 349.526 52.2353 349.92 52.6453C350.316 53.0544 350.956 53.0544 351.351 52.6453L352.781 51.1629L355.642 54.1276L354.212 55.6092C353.817 56.0191 353.817 56.6824 354.212 57.0916C354.606 57.5007 355.246 57.5015 355.642 57.0916C355.642 57.0916 355.642 57.0916 355.642 57.0908L357.072 55.6092L359.933 58.5739L358.505 60.0555L358.503 60.0563C358.107 60.4655 358.107 61.1295 358.503 61.5387C358.899 61.9478 359.539 61.9478 359.933 61.5387L361.364 60.0563L364.182 62.9773L358.46 68.906L321.355 30.4544L327.077 24.5258ZM322.538 67.6784V65.9419L324.216 67.6784H322.538ZM328.26 67.6784H327.075L322.538 62.9772V61.7497L335.617 48.1982L337.768 50.4282L327.675 60.8877C327.28 61.2968 327.28 61.9609 327.675 62.37C328.069 62.7792 328.709 62.7792 329.105 62.37L339.199 51.9107L341.339 54.1269L328.26 67.6784Z" fill="url(#paint3_linear_1063_566)" style="mix-blend-mode:multiply"/>
</g>
<path d="M357.742 396.347L348.72 405.078C348.305 405.48 348.295 406.142 348.696 406.556C349.099 406.972 349.762 406.983 350.177 406.582L359.199 397.85C359.614 397.448 359.624 396.786 359.221 396.37C358.82 395.956 358.157 395.945 357.742 396.347Z" fill="url(#paint4_linear_1063_566)" style="mix-blend-mode:multiply"/>
<path d="M347.265 403.575L350.272 400.665C350.687 400.263 350.699 399.601 350.297 399.186C349.895 398.771 349.232 398.762 348.817 399.164L345.81 402.074C345.395 402.476 345.384 403.137 345.786 403.552C346.188 403.967 346.85 403.977 347.265 403.575Z" fill="url(#paint5_linear_1063_566)" style="mix-blend-mode:multiply"/>
<path d="M368.976 381.76L365.359 380.794L367.47 389.845L370.335 387.073L374.343 383.193L379.5 378.203L367.148 374.625L368.976 381.76ZM368.668 385.772L368.19 383.715L369.568 384.082L369.737 384.738L368.668 385.772ZM371.468 383.063L370.084 377.654L375.451 379.208L371.468 383.063Z" fill="url(#paint6_linear_1063_566)" style="mix-blend-mode:multiply"/>
<path d="M362.82 356.488L328.236 389.958C327.82 390.359 327.809 391.022 328.211 391.437L348.6 412.473C349.001 412.887 349.665 412.897 350.08 412.495L384.664 379.025C385.078 378.625 385.089 377.962 384.688 377.548L364.299 356.512C363.897 356.097 363.234 356.087 362.82 356.488ZM362.048 360.146L355.76 383.255C355.709 383.439 355.42 383.719 355.234 383.763L331.913 389.31L362.048 360.146ZM349.375 410.265L331.292 391.608L355.719 385.798C356.182 385.688 356.634 385.419 357.002 385.063C357.371 384.706 357.655 384.263 357.779 383.804L364.369 359.59L382.455 378.25L349.375 410.265Z" fill="url(#paint7_linear_1063_566)" style="mix-blend-mode:multiply"/>
<path d="M286.127 22.8679C286.127 10.2379 275.93 0 263.35 0C259.203 0 255.314 1.11375 251.963 3.05988C248.612 1.11389 244.723 0 240.575 0C227.995 0 217.798 10.2379 217.798 22.8679C217.798 31.4006 222.453 38.8403 229.351 42.7701C230.704 54.1021 240.311 62.8869 251.963 62.8869C263.615 62.8869 273.222 54.1021 274.575 42.7701C281.473 38.8403 286.127 31.4006 286.127 22.8679ZM232.478 44.2472C234.995 45.2082 237.723 45.7358 240.575 45.7358C244.723 45.7358 248.612 44.622 251.963 42.6759C255.314 44.6219 259.203 45.7358 263.35 45.7358C266.203 45.7358 268.93 45.2081 271.447 44.2472C271.186 45.4626 270.813 46.6517 270.327 47.8064C269.324 50.1889 267.885 52.3297 266.055 54.168C264.224 56.0062 262.093 57.4498 259.72 58.4579C257.263 59.5005 254.655 60.0293 251.963 60.0293C249.271 60.0293 246.662 59.5007 244.206 58.4579C241.833 57.4499 239.702 56.0062 237.871 54.168C236.04 52.3297 234.601 50.189 233.598 47.8064C233.112 46.6517 232.739 45.4626 232.478 44.2472ZM271.87 40.9622C271.618 41.0816 271.364 41.1967 271.107 41.3066C268.653 42.3492 266.042 42.878 263.35 42.878C260.658 42.878 258.05 42.3493 255.595 41.3066C255.268 41.1674 254.947 41.0197 254.628 40.8648C259.764 36.8157 263.123 30.5986 263.338 23.586C264.303 24.2611 265.212 25.0233 266.055 25.8701C267.886 27.7084 269.324 29.8491 270.327 32.2307C271.366 34.6959 271.891 37.3161 271.891 40.0191C271.891 40.3352 271.885 40.6492 271.87 40.9622ZM260.481 21.9247C260.495 22.2377 260.504 22.5518 260.504 22.8679C260.504 25.5708 259.978 28.191 258.94 30.6552C257.935 33.0377 256.498 35.1785 254.667 37.0168C253.827 37.8606 252.924 38.6195 251.963 39.2916C251.001 38.6195 250.098 37.8606 249.258 37.0168C247.427 35.1785 245.991 33.0379 244.985 30.6552C243.947 28.191 243.422 25.5708 243.422 22.8679C243.422 22.5518 243.43 22.2377 243.445 21.9247C243.695 21.8053 243.949 21.6902 244.206 21.5803C246.662 20.5377 249.271 20.009 251.963 20.009C254.655 20.009 257.263 20.5376 259.72 21.5803C259.976 21.6902 260.231 21.8053 260.481 21.9247ZM251.963 17.1512C249.112 17.1512 246.383 17.6788 243.868 18.6397C244.129 17.4244 244.5 16.2352 244.986 15.0806C245.991 12.698 247.427 10.5572 249.258 8.71896C250.099 7.87521 251.002 7.11627 251.963 6.44415C252.924 7.11627 253.827 7.87521 254.668 8.71896C256.498 10.5572 257.935 12.6979 258.94 15.0806C259.426 16.2352 259.799 17.4244 260.058 18.6397C257.543 17.6787 254.813 17.1512 251.963 17.1512ZM240.588 23.586C240.803 30.5986 244.162 36.8157 249.298 40.8648C248.979 41.0197 248.658 41.1674 248.33 41.3066C245.876 42.3492 243.267 42.878 240.576 42.878C237.884 42.878 235.273 42.3493 232.818 41.3066C232.562 41.1967 232.308 41.0815 232.055 40.9622C232.041 40.6492 232.034 40.3352 232.034 40.0191C232.034 37.3161 232.56 34.6959 233.598 32.2318C234.601 29.8492 236.04 27.7084 237.871 25.8701C238.713 25.0233 239.622 24.2611 240.588 23.586ZM249.298 4.87093C244.662 8.5244 241.476 13.9427 240.74 20.1169C234.036 23.9357 229.453 31.0708 229.198 39.301C228.233 38.6258 227.326 37.8636 226.483 37.0168C224.651 35.1785 223.214 33.0379 222.211 30.6552C221.172 28.191 220.645 25.5708 220.645 22.8679C220.645 20.165 221.172 17.5447 222.211 15.0806C223.214 12.698 224.65 10.5572 226.483 8.71896C228.314 6.8807 230.445 5.43719 232.818 4.42902C235.273 3.38642 237.883 2.85768 240.575 2.85768C243.267 2.85768 245.876 3.38629 248.33 4.42902C248.658 4.56838 248.979 4.7159 249.298 4.87093ZM281.715 15.0806C282.753 17.5449 283.281 20.165 283.281 22.8679C283.281 25.5708 282.753 28.191 281.715 30.6552C280.712 33.0377 279.275 35.1785 277.442 37.0168C276.6 37.8636 275.693 38.6258 274.727 39.301C274.473 31.0708 269.889 23.9357 263.186 20.1169C262.449 13.9427 259.263 8.52427 254.628 4.87093C254.947 4.71604 255.268 4.56838 255.595 4.42916C258.05 3.38655 260.658 2.85782 263.35 2.85782C266.042 2.85782 268.653 3.38642 271.107 4.42916C273.48 5.43719 275.611 6.88084 277.442 8.7191C279.275 10.5572 280.712 12.698 281.715 15.0806Z" fill="url(#paint8_linear_1063_566)" style="mix-blend-mode:multiply"/>
<path d="M88.4247 73.5008L101.632 82.58L107.293 86.4712L120.502 95.5514L153.542 51.5962L117.692 26.9521L88.4247 73.5008ZM91.532 72.8586L93.9717 68.9806L105.527 76.9236L102.931 80.6943L91.532 72.8586ZM104.819 81.992L110.01 74.4506L111.897 75.7474L106.705 83.2888L104.819 81.992ZM108.591 84.5855L111.187 80.8148L122.744 88.7588L119.99 92.4212L108.591 84.5855ZM150.277 52.1308L124.121 86.9272L112.485 78.9291L115.081 75.1584C115.44 74.6378 115.309 73.9261 114.788 73.568C114.267 73.2099 113.553 73.341 113.195 73.8617C113.553 73.341 113.421 72.6285 112.9 72.2703C112.379 71.9121 111.667 72.0443 111.309 72.5649C111.667 72.0443 111.535 71.3317 111.014 70.9736C110.493 70.6154 109.779 70.7465 109.421 71.2672L106.825 75.0379L95.1912 67.0408L118.36 30.1903L150.277 52.1308Z" fill="white"/>
<path d="M115.84 62.7147L125.829 57.9054L125.478 63.5195L138.209 57.7203L133.267 54.3231L126.349 49.5674L117.453 43.4522L115.84 62.7147ZM133.577 57.3153L128.001 59.8545L128.193 56.7659L130.891 55.4686L133.577 57.3154L133.577 57.3153ZM128.717 53.9741L118.456 58.9143L119.406 47.5739L128.717 53.9741Z" fill="white"/>
<g clip-path="url(#clip1_1063_566)">
<path d="M558.158 272.455C558.158 268.414 554.879 265.137 550.834 265.137C550.292 265.137 549.765 265.196 549.257 265.308L544.404 260.457L557.575 247.294C559.857 245.015 559.857 241.318 557.575 239.038C556.435 237.898 554.94 237.328 553.445 237.328C551.95 237.328 550.454 237.898 549.313 239.038L536.14 252.201L521.138 237.209C520.377 236.449 519.38 236.069 518.384 236.069C517.387 236.069 516.39 236.449 515.629 237.209C514.108 238.729 514.108 241.193 515.629 242.714L530.633 257.705L516.441 271.885V280.141H524.705L538.895 265.961L543.706 270.769C543.578 271.31 543.509 271.875 543.509 272.455C543.509 280.743 555.741 281.4 559.785 281.4C563.83 281.4 558.158 276.497 558.158 272.455ZM553.445 239.274C554.485 239.274 555.462 239.679 556.199 240.414C557.717 241.932 557.717 244.401 556.199 245.919L554.822 247.294L549.313 241.79L550.69 240.414C551.426 239.679 552.403 239.274 553.445 239.274ZM517.006 241.337C516.247 240.579 516.247 239.344 517.006 238.585C517.374 238.218 517.863 238.015 518.384 238.015C518.904 238.015 519.393 238.218 519.761 238.585L534.763 253.577L532.01 256.329L517.006 241.337ZM518.39 278.195V276.583L520.002 278.195H518.39ZM523.897 278.195H522.757L518.39 273.831V272.691L547.936 243.166L550.008 245.236L523.334 271.891C522.953 272.271 522.953 272.887 523.334 273.267C523.713 273.647 524.331 273.647 524.71 273.267L551.385 246.612L553.445 248.67L523.897 278.195ZM540.272 264.586L543.025 261.833L547.261 266.065C546.109 266.71 545.148 267.656 544.488 268.798L540.272 264.586ZM550.753 278.191C549.059 277.621 547.754 276.878 546.872 275.984C545.92 275.019 545.458 273.865 545.458 272.455C545.458 271.02 546.016 269.672 547.032 268.657C548.047 267.642 549.397 267.083 550.834 267.083C553.799 267.083 556.21 269.493 556.21 272.455C556.21 274.671 557.391 276.831 558.342 278.567C558.483 278.827 558.654 279.139 558.811 279.441C556.714 279.386 553.538 279.13 550.753 278.191Z" fill="url(#paint9_linear_1063_566)" style="mix-blend-mode:multiply"/>
</g>
<g clip-path="url(#clip2_1063_566)">
<path d="M397.045 203.839L483.164 228.222L488.406 209.743L402.285 185.359L397.045 203.839ZM480.956 224.271L474.883 222.55L475.758 219.47C475.998 218.62 475.503 217.735 474.653 217.493C473.802 217.254 472.917 217.747 472.674 218.597C472.675 218.599 472.675 218.599 472.675 218.599L471.802 221.678L465.637 219.932L466.51 216.854C466.752 216.002 466.258 215.118 465.405 214.876C464.556 214.636 463.668 215.129 463.428 215.979L462.556 219.061L456.391 217.315L457.263 214.235L457.264 214.234C457.505 213.385 457.01 212.498 456.16 212.259C455.307 212.017 454.422 212.511 454.182 213.362C454.181 213.363 454.181 213.363 454.181 213.363L453.308 216.441L447.143 214.696L448.017 211.617C448.258 210.766 447.763 209.881 446.912 209.639C446.062 209.4 445.176 209.894 444.934 210.743L444.061 213.824L437.896 212.079L438.77 209C439.012 208.148 438.517 207.264 437.665 207.022C436.814 206.78 435.929 207.274 435.687 208.126L434.815 211.207L428.651 209.461L429.524 206.38C429.765 205.531 429.27 204.644 428.42 204.405C427.567 204.163 426.682 204.657 426.442 205.508C426.441 205.509 426.441 205.509 426.441 205.509L425.568 208.587L419.403 206.842L420.277 203.763C420.517 202.912 420.023 202.027 419.172 201.785C418.322 201.546 417.436 202.04 417.194 202.889C417.194 202.889 417.194 202.889 417.195 202.891L416.321 205.97L410.156 204.225L411.028 201.147C411.029 201.146 411.03 201.146 411.03 201.146C411.271 200.295 410.777 199.41 409.925 199.168C409.074 198.926 408.188 199.421 407.947 200.272L407.073 203.351L401.001 201.632L404.493 189.312L484.45 211.951L480.956 224.271Z" fill="url(#paint10_linear_1063_566)" style="mix-blend-mode:multiply"/>
</g>
<path d="M466.377 51.7171L441.119 20.4438C440.816 20.0694 440.266 20.0102 439.89 20.3132L418.119 37.8708C417.743 38.1738 417.685 38.724 417.987 39.0985L427.1 50.3813L422.361 52.8597L422.141 52.5878C421.839 52.2134 421.288 52.1546 420.912 52.4576C420.536 52.7606 420.478 53.3109 420.781 53.6854L429.567 64.5639C429.869 64.9384 430.42 64.9976 430.796 64.6945C431.171 64.3915 431.23 63.8409 430.928 63.4665L430.708 63.1936L434.132 59.087L443.246 70.3718C443.549 70.7463 444.099 70.8055 444.475 70.5024L466.246 52.9448C466.622 52.6418 466.68 52.0916 466.377 51.7171ZM423.481 54.247L428.214 51.772L433.008 57.704L429.588 61.8075L423.481 54.247L423.481 54.247ZM464.466 52.1334L446.778 66.3986L422.619 36.4876L440.308 22.2225L464.466 52.1334ZM431.977 53.6381L419.898 38.6826L421.259 37.5851L433.338 52.5406L445.417 67.4961L444.056 68.5936L431.977 53.6381Z" fill="url(#paint11_linear_1063_566)" style="mix-blend-mode:multiply"/>
<path d="M433.206 53.7677C433.581 53.4648 433.64 52.9159 433.337 52.5409C433.034 52.1658 432.485 52.1077 432.11 52.4105C431.734 52.7134 431.674 53.2627 431.977 53.6377C432.28 54.0128 432.83 54.0705 433.206 53.7677Z" fill="url(#paint12_linear_1063_566)" style="mix-blend-mode:multiply"/>
<path d="M439.236 26.4564L455.707 46.8492C455.707 46.8492 455.707 46.8502 455.708 46.8512C456.011 47.2256 456.561 47.2848 456.937 46.9818C457.313 46.6788 457.371 46.1281 457.069 45.7537L440.597 25.3589C440.293 24.9825 439.741 24.9237 439.366 25.2267C438.99 25.5297 438.932 26.08 439.236 26.4564Z" fill="url(#paint13_linear_1063_566)" style="mix-blend-mode:multiply"/>
<path d="M436.516 28.6513L445.3 39.5269C445.301 39.5279 445.301 39.5279 445.301 39.5279C445.604 39.9034 446.154 39.9615 446.53 39.6585C446.905 39.3555 446.965 38.8062 446.661 38.4308L437.876 27.5542C437.572 27.1778 437.022 27.1186 436.646 27.4216C436.27 27.7246 436.212 28.2749 436.516 28.6513Z" fill="url(#paint14_linear_1063_566)" style="mix-blend-mode:multiply"/>
<path d="M433.789 30.8465L445.867 45.8011C445.868 45.8021 445.868 45.8021 445.868 45.8021C446.171 46.1775 446.721 46.2357 447.097 45.9327C447.472 45.6297 447.532 45.08 447.229 44.7045L435.149 29.7491C434.845 29.3726 434.295 29.3134 433.919 29.6164C433.543 29.9198 433.484 30.4701 433.789 30.8465Z" fill="url(#paint15_linear_1063_566)" style="mix-blend-mode:multiply"/>
<path d="M431.072 33.0394L438.758 42.5556C439.062 42.932 439.613 42.9913 439.988 42.6883C440.364 42.3852 440.422 41.835 440.118 41.4585L432.433 31.9419C432.129 31.5655 431.578 31.5067 431.202 31.8097C430.826 32.1127 430.768 32.663 431.072 33.0394Z" fill="url(#paint16_linear_1063_566)" style="mix-blend-mode:multiply"/>
<path d="M428.349 35.2363L442.624 52.9104L442.623 52.9108C442.927 53.2872 443.479 53.346 443.854 53.043C444.23 52.74 444.288 52.1898 443.984 51.8133L429.709 34.1392C429.405 33.7628 428.855 33.7035 428.479 34.0065C428.103 34.3096 428.045 34.8598 428.349 35.2363Z" fill="url(#paint17_linear_1063_566)" style="mix-blend-mode:multiply"/>
<path d="M425.628 37.4295L430.02 42.8668C430.324 43.2432 430.874 43.3025 431.25 42.9994C431.626 42.6964 431.685 42.1457 431.381 41.7693L426.989 36.3321C426.685 35.9557 426.135 35.8964 425.759 36.1994C425.383 36.5028 425.324 37.0531 425.628 37.4295Z" fill="url(#paint18_linear_1063_566)" style="mix-blend-mode:multiply"/>
<path d="M305.391 275.109L298.558 267.921L290.78 291.296L301.096 288.997L315.539 285.778L334.106 281.64L311.158 256.457L305.391 275.109ZM295.924 286.655L300.003 274.395L304.236 278.846L302.258 285.243L295.924 286.655ZM306.097 284.387L312.656 263.169L327.621 279.59L306.097 284.387Z" fill="white"/>
<path d="M322.607 230.128L321.847 226.727C321.638 225.788 320.723 225.193 319.803 225.398C318.881 225.604 318.306 226.53 318.516 227.47L319.275 230.871L312.608 232.357L311.849 228.955C311.64 228.016 310.725 227.421 309.805 227.626C308.882 227.832 308.308 228.759 308.517 229.698L309.276 233.099L302.611 234.585L301.852 231.183C301.642 230.244 300.727 229.649 299.807 229.855C298.885 230.06 298.309 230.987 298.519 231.926L299.278 235.328L292.613 236.813L291.854 233.412C291.644 232.473 290.729 231.878 289.808 232.083C288.887 232.288 288.311 233.215 288.521 234.155L289.28 237.556L282.615 239.041L281.855 235.64C281.646 234.701 280.73 234.106 279.81 234.311C278.888 234.517 278.313 235.444 278.522 236.383L279.281 239.784L269.283 242.013L285.985 316.839L349.307 302.726L332.605 227.9L322.607 230.128ZM345.231 300.137L288.574 312.764L273.36 244.601L280.025 243.115L280.752 246.374C280.962 247.313 281.878 247.909 282.799 247.703C283.719 247.498 284.295 246.57 284.085 245.631L283.358 242.372L290.023 240.887L290.751 244.145C290.96 245.085 291.876 245.681 292.797 245.475C293.718 245.27 294.293 244.342 294.084 243.403L293.356 240.144L300.022 238.658L300.749 241.917C300.958 242.856 301.874 243.452 302.796 243.247C303.716 243.042 304.292 242.113 304.082 241.174L303.355 237.916L310.02 236.43L310.747 239.689C310.957 240.628 311.872 241.224 312.794 241.018C313.714 240.813 314.289 239.885 314.079 238.946L313.352 235.687L320.018 234.202L320.746 237.46C320.955 238.4 321.87 238.996 322.793 238.79C323.713 238.585 324.287 237.657 324.078 236.718L323.35 233.459L330.017 231.973L345.231 300.137Z" fill="white"/>
<path d="M342.284 97.8071L301.4 133.752C300.909 134.183 300.861 134.931 301.293 135.422L326.317 163.841C326.749 164.331 327.497 164.378 327.988 163.947L342.738 150.978L346.366 157.242L346.011 157.555C345.52 157.986 345.472 158.734 345.904 159.225C346.336 159.715 347.084 159.762 347.575 159.331L361.796 146.828C362.287 146.397 362.334 145.65 361.902 145.16C361.47 144.669 360.722 144.62 360.232 145.052L359.876 145.364L354.118 140.973L368.871 128.002C369.362 127.571 369.409 126.824 368.977 126.334L343.953 97.9144C343.522 97.4239 342.775 97.3756 342.284 97.8071ZM348.179 155.649L344.555 149.393L352.312 142.57L358.064 146.958L348.179 155.649L348.179 155.649ZM350.778 109.246L345.446 113.934L337.626 105.054L342.959 100.365L350.778 109.246ZM347.01 115.711L352.343 111.022L363.29 123.455L357.958 128.144L347.01 115.711ZM335.849 106.616L356.18 129.706L324.185 157.837L303.854 134.747L335.849 106.616ZM346.865 144.199L327.313 161.389L325.749 159.613L345.301 142.423L364.854 125.232L366.418 127.008L346.865 144.199Z" fill="url(#paint19_linear_1063_566)" style="mix-blend-mode:multiply"/>
<path d="M346.971 142.529C346.539 142.039 345.792 141.99 345.3 142.423C344.809 142.855 344.762 143.601 345.193 144.091C345.625 144.582 346.373 144.631 346.864 144.199C347.356 143.767 347.402 143.02 346.971 142.529Z" fill="url(#paint20_linear_1063_566)" style="mix-blend-mode:multiply"/>
<path d="M334.926 135.757L341.021 130.399L327.262 125.689L328.938 133.849L324.905 132.563L326.8 142.902L330.186 139.925L334.926 135.757ZM330.414 129.269L336.393 131.316L331.685 135.455L330.414 129.269ZM328.376 138.365L327.945 136.015L329.483 136.506L329.638 137.256L328.376 138.365Z" fill="url(#paint21_linear_1063_566)" style="mix-blend-mode:multiply"/>
<path d="M314.089 132.046L312.312 133.608L313.876 135.385L315.653 133.822L314.089 132.046Z" fill="url(#paint22_linear_1063_566)" style="mix-blend-mode:multiply"/>
<path d="M323.866 123.452L322.089 125.015L323.653 126.791L325.43 125.229L323.866 123.452Z" fill="url(#paint23_linear_1063_566)" style="mix-blend-mode:multiply"/>
<path d="M333.641 114.857L331.862 116.42L333.426 118.197L335.205 116.633L333.641 114.857Z" fill="url(#paint24_linear_1063_566)" style="mix-blend-mode:multiply"/>
<path d="M339.899 121.962L338.121 123.525L339.685 125.301L341.463 123.738L339.899 121.962Z" fill="url(#paint25_linear_1063_566)" style="mix-blend-mode:multiply"/>
<path d="M346.155 129.066L344.377 130.629L345.941 132.406L347.719 130.842L346.155 129.066Z" fill="url(#paint26_linear_1063_566)" style="mix-blend-mode:multiply"/>
<path d="M326.604 146.258L324.826 147.82L326.391 149.597L328.168 148.034L326.604 146.258Z" fill="url(#paint27_linear_1063_566)" style="mix-blend-mode:multiply"/>
<path d="M320.348 139.153L318.571 140.715L320.135 142.491L321.912 140.929L320.348 139.153Z" fill="url(#paint28_linear_1063_566)" style="mix-blend-mode:multiply"/>
<path d="M336.38 137.663L334.603 139.226L336.167 141.002L337.945 139.44L336.38 137.663Z" fill="url(#paint29_linear_1063_566)" style="mix-blend-mode:multiply"/>
<path d="M594 169.796C594 182.412 583.764 192.646 571.129 192.646C558.494 192.646 548.258 182.412 548.258 169.796C548.258 157.18 558.494 146.946 571.129 146.946C583.764 146.946 594 157.18 594 169.796Z" stroke="url(#paint30_linear_1063_566)" stroke-width="10" style="mix-blend-mode:multiply"/>
<path d="M424.582 466.815V459.784H413.889V447.396H406.505V459.784H395.812V466.815H406.505V479.738H413.889V466.815H424.582Z" fill="white"/>
<path d="M497.356 524.657C497.355 521.95 489.973 498.874 518.768 506.994C547.563 515.114 556.423 501.581 562.329 475.499C568.236 449.417 585.464 446.957 599 447.449" stroke="url(#paint31_linear_1063_566)" stroke-width="8" stroke-linecap="round" stroke-linejoin="round" style="mix-blend-mode:multiply"/>
<path d="M575.979 80.4576C575.027 80.9428 568.23 87.6596 565.946 76.1365C563.663 64.6135 557.323 63.941 547.097 66.55C536.872 69.1591 532.932 63.5765 530.689 58.7556" stroke="url(#paint32_linear_1063_566)" stroke-width="8" stroke-linecap="round" stroke-linejoin="round" style="mix-blend-mode:multiply"/>
<path d="M45.333 123.027L25.0485 144.061L3.74932 158.826L7.40992 162.351L4.76407 165.094C4.27698 165.599 4.29189 166.404 4.79734 166.891L37.7449 198.617C38.2503 199.104 39.0551 199.089 39.5422 198.583L80.1111 156.516C80.5982 156.011 80.584 155.207 80.0785 154.72L47.131 122.994C46.6256 122.507 45.82 122.522 45.333 123.027ZM7.74557 159.147L24.7859 147.335L55.8303 177.228L38.7901 189.041L7.74557 159.147ZM38.5927 195.907L7.47578 165.944L9.24057 164.114L38.5275 192.315L49.1761 184.933L38.5927 195.907ZM77.3994 155.667L57.996 175.787L26.8792 145.824L46.2825 125.704L77.3994 155.667Z" fill="url(#paint33_linear_1063_566)" style="mix-blend-mode:multiply"/>
<path d="M37.5281 138.44L32.2364 143.927L37.7276 149.215L43.0194 143.728L37.5281 138.44ZM39.4239 143.795L37.6605 145.624L35.8298 143.861L37.5933 142.032L39.4239 143.795Z" fill="url(#paint34_linear_1063_566)" style="mix-blend-mode:multiply"/>
<path d="M44.5848 131.125L39.2931 136.612L44.7843 141.9L50.0761 136.412L44.5848 131.125ZM46.4819 136.478L44.7172 138.308L42.8865 136.545L44.6513 134.715L46.4819 136.478Z" fill="url(#paint35_linear_1063_566)" style="mix-blend-mode:multiply"/>
<path d="M44.8554 145.49L39.5637 150.978L45.0549 156.265L50.3467 150.778L44.8554 145.49ZM46.7519 150.846L44.9884 152.675L43.1578 150.912L44.9213 149.083L46.7519 150.846Z" fill="url(#paint36_linear_1063_566)" style="mix-blend-mode:multiply"/>
<path d="M51.9051 138.174L46.6134 143.662L52.1046 148.949L57.3963 143.462L51.9051 138.174ZM53.8029 143.529L52.0381 145.359L50.2075 143.596L51.9723 141.766L53.8029 143.529Z" fill="url(#paint37_linear_1063_566)" style="mix-blend-mode:multiply"/>
<path d="M52.1722 152.54L46.8805 158.027L52.3717 163.315L57.6634 157.828L52.1722 152.54ZM54.068 157.895L52.3045 159.724L50.4746 157.962L52.238 156.133L54.068 157.895Z" fill="url(#paint38_linear_1063_566)" style="mix-blend-mode:multiply"/>
<path d="M59.2289 145.225L53.9372 150.712L59.4284 156L64.7201 150.513L59.2289 145.225ZM61.126 150.579L59.3612 152.409L57.5313 150.647L59.2961 148.817L61.126 150.579Z" fill="url(#paint39_linear_1063_566)" style="mix-blend-mode:multiply"/>
<path d="M64.9872 164.878L59.496 159.591L54.2043 165.078L59.6955 170.365L64.9872 164.878ZM57.7977 165.011L59.5612 163.183L61.3918 164.945L59.6283 166.774L57.7977 165.011Z" fill="url(#paint40_linear_1063_566)" style="mix-blend-mode:multiply"/>
<path d="M66.5457 152.276L61.254 157.763L66.7452 163.05L72.0369 157.563L66.5457 152.276ZM68.4428 157.629L66.678 159.459L64.8474 157.696L66.6122 155.866L68.4428 157.629Z" fill="url(#paint41_linear_1063_566)" style="mix-blend-mode:multiply"/>
<defs>
<linearGradient id="paint0_linear_1063_566" x1="251.143" y1="103.936" x2="180.496" y2="124.775" gradientUnits="userSpaceOnUse">
<stop stop-color="#FFC000"/>
<stop offset="1" stop-color="#FF8A00"/>
</linearGradient>
<linearGradient id="paint1_linear_1063_566" x1="445.399" y1="331.384" x2="447.677" y2="269.527" gradientUnits="userSpaceOnUse">
<stop stop-color="#FFC000"/>
<stop offset="1" stop-color="#FF8A00"/>
</linearGradient>
<linearGradient id="paint2_linear_1063_566" x1="436.794" y1="309.124" x2="435.994" y2="289.133" gradientUnits="userSpaceOnUse">
<stop stop-color="#FFC000"/>
<stop offset="1" stop-color="#FF8A00"/>
</linearGradient>
<linearGradient id="paint3_linear_1063_566" x1="366.412" y1="22.7777" x2="311.605" y2="38.3664" gradientUnits="userSpaceOnUse">
<stop stop-color="#FFC000"/>
<stop offset="1" stop-color="#FF8A00"/>
</linearGradient>
<linearGradient id="paint4_linear_1063_566" x1="358.392" y1="395.788" x2="360.827" y2="403.195" gradientUnits="userSpaceOnUse">
<stop stop-color="#FFC000"/>
<stop offset="1" stop-color="#FF8A00"/>
</linearGradient>
<linearGradient id="paint5_linear_1063_566" x1="349.546" y1="398.529" x2="349.106" y2="404.245" gradientUnits="userSpaceOnUse">
<stop stop-color="#FFC000"/>
<stop offset="1" stop-color="#FF8A00"/>
</linearGradient>
<linearGradient id="paint6_linear_1063_566" x1="371.763" y1="370.534" x2="364.751" y2="387.845" gradientUnits="userSpaceOnUse">
<stop stop-color="#FFC000"/>
<stop offset="1" stop-color="#FF8A00"/>
</linearGradient>
<linearGradient id="paint7_linear_1063_566" x1="363.63" y1="356.76" x2="344.086" y2="408.608" gradientUnits="userSpaceOnUse">
<stop stop-color="#FFC000"/>
<stop offset="1" stop-color="#FF8A00"/>
</linearGradient>
<linearGradient id="paint8_linear_1063_566" x1="285.239" y1="1.52084" x2="209.618" y2="25.738" gradientUnits="userSpaceOnUse">
<stop stop-color="#FFC000"/>
<stop offset="1" stop-color="#FF8A00"/>
</linearGradient>
<linearGradient id="paint9_linear_1063_566" x1="560.632" y1="237.166" x2="508.411" y2="253.04" gradientUnits="userSpaceOnUse">
<stop stop-color="#FFC000"/>
<stop offset="1" stop-color="#FF8A00"/>
</linearGradient>
<linearGradient id="paint10_linear_1063_566" x1="392.529" y1="191.947" x2="456.78" y2="254.907" gradientUnits="userSpaceOnUse">
<stop stop-color="#FFC000"/>
<stop offset="1" stop-color="#FF8A00"/>
</linearGradient>
<linearGradient id="paint11_linear_1063_566" x1="465.892" y1="52.5294" x2="424.972" y2="26.4631" gradientUnits="userSpaceOnUse">
<stop stop-color="#FFC000"/>
<stop offset="1" stop-color="#FF8A00"/>
</linearGradient>
<linearGradient id="paint12_linear_1063_566" x1="433.838" y1="53.2283" x2="432.159" y2="52.0652" gradientUnits="userSpaceOnUse">
<stop stop-color="#FFC000"/>
<stop offset="1" stop-color="#FF8A00"/>
</linearGradient>
<linearGradient id="paint13_linear_1063_566" x1="457.356" y1="46.1766" x2="451.044" y2="49.3859" gradientUnits="userSpaceOnUse">
<stop stop-color="#FFC000"/>
<stop offset="1" stop-color="#FF8A00"/>
</linearGradient>
<linearGradient id="paint14_linear_1063_566" x1="447.048" y1="38.9774" x2="440.618" y2="41.1001" gradientUnits="userSpaceOnUse">
<stop stop-color="#FFC000"/>
<stop offset="1" stop-color="#FF8A00"/>
</linearGradient>
<linearGradient id="paint15_linear_1063_566" x1="447.573" y1="45.1982" x2="441.167" y2="47.9348" gradientUnits="userSpaceOnUse">
<stop stop-color="#FFC000"/>
<stop offset="1" stop-color="#FF8A00"/>
</linearGradient>
<linearGradient id="paint16_linear_1063_566" x1="440.522" y1="42.0244" x2="434.113" y2="43.8543" gradientUnits="userSpaceOnUse">
<stop stop-color="#FFC000"/>
<stop offset="1" stop-color="#FF8A00"/>
</linearGradient>
<linearGradient id="paint17_linear_1063_566" x1="444.302" y1="52.2736" x2="437.941" y2="55.28" gradientUnits="userSpaceOnUse">
<stop stop-color="#FFC000"/>
<stop offset="1" stop-color="#FF8A00"/>
</linearGradient>
<linearGradient id="paint18_linear_1063_566" x1="431.827" y1="42.3886" x2="425.856" y2="42.885" gradientUnits="userSpaceOnUse">
<stop stop-color="#FFC000"/>
<stop offset="1" stop-color="#FF8A00"/>
</linearGradient>
<linearGradient id="paint19_linear_1063_566" x1="343.411" y1="98.4162" x2="310.554" y2="155.277" gradientUnits="userSpaceOnUse">
<stop stop-color="#FFC000"/>
<stop offset="1" stop-color="#FF8A00"/>
</linearGradient>
<linearGradient id="paint20_linear_1063_566" x1="346.203" y1="141.704" x2="344.727" y2="144.047" gradientUnits="userSpaceOnUse">
<stop stop-color="#FFC000"/>
<stop offset="1" stop-color="#FF8A00"/>
</linearGradient>
<linearGradient id="paint21_linear_1063_566" x1="332.696" y1="121.318" x2="323.838" y2="140.497" gradientUnits="userSpaceOnUse">
<stop stop-color="#FFC000"/>
<stop offset="1" stop-color="#FF8A00"/>
</linearGradient>
<linearGradient id="paint22_linear_1063_566" x1="314.104" y1="132.109" x2="312.627" y2="134.452" gradientUnits="userSpaceOnUse">
<stop stop-color="#FFC000"/>
<stop offset="1" stop-color="#FF8A00"/>
</linearGradient>
<linearGradient id="paint23_linear_1063_566" x1="323.881" y1="123.516" x2="322.404" y2="125.858" gradientUnits="userSpaceOnUse">
<stop stop-color="#FFC000"/>
<stop offset="1" stop-color="#FF8A00"/>
</linearGradient>
<linearGradient id="paint24_linear_1063_566" x1="333.655" y1="114.92" x2="332.178" y2="117.265" gradientUnits="userSpaceOnUse">
<stop stop-color="#FFC000"/>
<stop offset="1" stop-color="#FF8A00"/>
</linearGradient>
<linearGradient id="paint25_linear_1063_566" x1="339.914" y1="122.025" x2="338.438" y2="124.37" gradientUnits="userSpaceOnUse">
<stop stop-color="#FFC000"/>
<stop offset="1" stop-color="#FF8A00"/>
</linearGradient>
<linearGradient id="paint26_linear_1063_566" x1="346.17" y1="129.129" x2="344.693" y2="131.474" gradientUnits="userSpaceOnUse">
<stop stop-color="#FFC000"/>
<stop offset="1" stop-color="#FF8A00"/>
</linearGradient>
<linearGradient id="paint27_linear_1063_566" x1="326.618" y1="146.321" x2="325.142" y2="148.664" gradientUnits="userSpaceOnUse">
<stop stop-color="#FFC000"/>
<stop offset="1" stop-color="#FF8A00"/>
</linearGradient>
<linearGradient id="paint28_linear_1063_566" x1="320.363" y1="139.216" x2="318.887" y2="141.559" gradientUnits="userSpaceOnUse">
<stop stop-color="#FFC000"/>
<stop offset="1" stop-color="#FF8A00"/>
</linearGradient>
<linearGradient id="paint29_linear_1063_566" x1="336.395" y1="137.726" x2="334.919" y2="140.069" gradientUnits="userSpaceOnUse">
<stop stop-color="#FFC000"/>
<stop offset="1" stop-color="#FF8A00"/>
</linearGradient>
<linearGradient id="paint30_linear_1063_566" x1="598.275" y1="143.293" x2="535.702" y2="161.75" gradientUnits="userSpaceOnUse">
<stop stop-color="#FFC000"/>
<stop offset="1" stop-color="#FF8A00"/>
</linearGradient>
<linearGradient id="paint31_linear_1063_566" x1="597.668" y1="449.264" x2="489.188" y2="491.68" gradientUnits="userSpaceOnUse">
<stop stop-color="#FFC000"/>
<stop offset="1" stop-color="#FF8A00"/>
</linearGradient>
<linearGradient id="paint32_linear_1063_566" x1="531.565" y1="58.8961" x2="565.714" y2="89.364" gradientUnits="userSpaceOnUse">
<stop stop-color="#FFC000"/>
<stop offset="1" stop-color="#FF8A00"/>
</linearGradient>
<linearGradient id="paint33_linear_1063_566" x1="42.934" y1="120.053" x2="12.7951" y2="183.792" gradientUnits="userSpaceOnUse">
<stop stop-color="#FFC000"/>
<stop offset="1" stop-color="#FF8A00"/>
</linearGradient>
<linearGradient id="paint34_linear_1063_566" x1="37.5921" y1="138.639" x2="33.4731" y2="146.552" gradientUnits="userSpaceOnUse">
<stop stop-color="#FFC000"/>
<stop offset="1" stop-color="#FF8A00"/>
</linearGradient>
<linearGradient id="paint35_linear_1063_566" x1="44.6488" y1="131.324" x2="40.5298" y2="139.236" gradientUnits="userSpaceOnUse">
<stop stop-color="#FFC000"/>
<stop offset="1" stop-color="#FF8A00"/>
</linearGradient>
<linearGradient id="paint36_linear_1063_566" x1="44.9194" y1="145.69" x2="40.8004" y2="153.602" gradientUnits="userSpaceOnUse">
<stop stop-color="#FFC000"/>
<stop offset="1" stop-color="#FF8A00"/>
</linearGradient>
<linearGradient id="paint37_linear_1063_566" x1="51.9691" y1="138.374" x2="47.8501" y2="146.286" gradientUnits="userSpaceOnUse">
<stop stop-color="#FFC000"/>
<stop offset="1" stop-color="#FF8A00"/>
</linearGradient>
<linearGradient id="paint38_linear_1063_566" x1="52.2362" y1="152.739" x2="48.1172" y2="160.652" gradientUnits="userSpaceOnUse">
<stop stop-color="#FFC000"/>
<stop offset="1" stop-color="#FF8A00"/>
</linearGradient>
<linearGradient id="paint39_linear_1063_566" x1="59.2929" y1="145.424" x2="55.1739" y2="153.337" gradientUnits="userSpaceOnUse">
<stop stop-color="#FFC000"/>
<stop offset="1" stop-color="#FF8A00"/>
</linearGradient>
<linearGradient id="paint40_linear_1063_566" x1="59.56" y1="159.79" x2="55.441" y2="167.702" gradientUnits="userSpaceOnUse">
<stop stop-color="#FFC000"/>
<stop offset="1" stop-color="#FF8A00"/>
</linearGradient>
<linearGradient id="paint41_linear_1063_566" x1="66.6097" y1="152.475" x2="62.4907" y2="160.387" gradientUnits="userSpaceOnUse">
<stop stop-color="#FFC000"/>
<stop offset="1" stop-color="#FF8A00"/>
</linearGradient>
<clipPath id="clip0_1063_566">
<rect width="48.5493" height="50.3096" fill="white" transform="translate(318.494 21.561)"/>
</clipPath>
<clipPath id="clip1_1063_566">
<rect width="46.7512" height="46.716" fill="white" transform="translate(514.49 235.376)"/>
</clipPath>
<clipPath id="clip2_1063_566">
<rect width="76.8408" height="76.8711" fill="white" transform="matrix(-0.487842 -0.872932 0.873244 -0.487283 427.904 259.058)"/>
</clipPath>
</defs>
</svg>
