<svg width="255" height="249" viewBox="0 0 255 249" fill="none" xmlns="http://www.w3.org/2000/svg">
<path d="M205.253 63.818C205.056 60.2617 203.6 56.7603 200.885 54.0423C195.029 48.1825 185.535 48.1825 179.679 54.0423C176.752 56.9727 175.288 60.8127 175.288 64.6536C175.288 68.4936 176.752 72.3345 179.679 75.264C182.395 77.9811 185.893 79.4389 189.448 79.6357L205.253 63.818ZM185.272 60.4439V57.4724L190.519 60.6224L188.112 62.0683L185.272 60.4439ZM185.272 61.8834L194 66.8747L185.272 71.866V61.8834ZM190.876 76.4381C191.042 75.4773 191.311 74.5364 191.681 73.624C192.372 71.9191 193.387 70.388 194.7 69.0747C196.108 67.6654 197.759 66.602 199.607 65.912C200.408 65.6136 201.227 65.3921 202.059 65.2476L190.876 76.4381ZM184.751 77.2508C183.19 76.5645 181.78 75.598 180.563 74.3799C179.251 73.0666 178.235 71.5356 177.544 69.8307C176.876 68.1815 176.537 66.4409 176.537 64.6536C176.537 62.8663 176.876 61.1247 177.544 59.4765C178.235 57.7707 179.251 56.2405 180.563 54.9272C181.876 53.614 183.405 52.5963 185.109 51.9054C186.756 51.2364 188.496 50.8978 190.282 50.8978C192.068 50.8978 193.808 51.2364 195.455 51.9054C197.159 52.5963 198.689 53.614 200.001 54.9272C201.219 56.1453 202.184 57.5556 202.869 59.1177C203.459 60.4612 203.826 61.8779 203.964 63.3403L203.48 63.8253C200.793 63.9928 198.143 64.8805 195.843 66.4885L189.356 62.7785L192.948 60.6224L184.023 55.2631V59.7291V65.9815V74.0203L193.336 68.6941C190.955 71.3059 189.661 74.5548 189.455 77.8603L188.97 78.3462C187.509 78.2081 186.093 77.8402 184.751 77.2508Z" fill="url(#paint0_linear_1077_44)" style="mix-blend-mode:multiply"/>
<path d="M211.248 192.627L202.679 185.303L201.898 184.635L193.329 177.311L179.939 193.001L188.507 200.325L189.288 200.992L197.857 208.316L211.248 192.627ZM181.325 192.891L193.438 178.698L201.259 185.383L189.146 199.576L181.325 192.891ZM202.04 186.051L209.862 192.736L197.749 206.929L189.927 200.244L202.04 186.051L202.04 186.051Z" fill="white"/>
<path d="M202.658 194.465L204.604 194.79L203.043 190.135L201.676 191.736L199.763 193.978L197.305 196.858L203.971 198.127L202.658 194.465ZM202.664 192.094L203.155 193.551L202.274 193.404L202.06 192.801L202.664 192.094ZM201.326 193.662L202.466 196.84L199.151 196.21L201.326 193.662Z" fill="white"/>
<path d="M196.876 195.85L201.978 189.872C202.153 189.668 202.129 189.355 201.922 189.178C201.718 189.004 201.406 189.029 201.231 189.233L196.129 195.211C195.952 195.418 195.98 195.727 196.184 195.902C196.39 196.078 196.7 196.057 196.876 195.85Z" fill="white"/>
<path d="M193.392 182.532C193.567 182.328 193.545 182.017 193.338 181.841C193.132 181.664 192.822 181.691 192.648 181.896C192.471 182.103 192.493 182.413 192.7 182.589C192.906 182.766 193.216 182.739 193.392 182.532Z" fill="white"/>
<path d="M192.118 184.027C192.292 183.823 192.27 183.513 192.063 183.337C191.857 183.16 191.547 183.187 191.373 183.391C191.197 183.598 191.219 183.908 191.425 184.084C191.632 184.261 191.941 184.234 192.118 184.027Z" fill="white"/>
<path d="M190.84 185.524C191.017 185.317 190.995 185.007 190.788 184.83C190.582 184.654 190.272 184.681 190.096 184.887C189.922 185.091 189.943 185.401 190.15 185.578C190.357 185.754 190.666 185.728 190.84 185.524Z" fill="white"/>
<path d="M189.565 187.016C189.741 186.809 189.719 186.499 189.513 186.322C189.306 186.146 188.997 186.173 188.82 186.38C188.647 186.583 188.669 186.893 188.875 187.069C189.082 187.246 189.391 187.219 189.565 187.016Z" fill="white"/>
<path d="M188.29 188.512C188.467 188.305 188.443 187.997 188.236 187.821C188.03 187.644 187.722 187.669 187.546 187.876C187.37 188.083 187.394 188.389 187.601 188.566C187.807 188.742 188.114 188.719 188.29 188.512Z" fill="white"/>
<path d="M191.179 186.641L188.721 189.521L195.385 190.788L194.071 187.125L196.02 187.453L194.459 182.798L193.092 184.399L191.179 186.641L191.179 186.641ZM190.564 188.871L192.739 186.323L193.879 189.501L190.564 188.871ZM194.077 184.755L194.568 186.212L193.69 186.066L193.473 185.462L194.077 184.755L194.077 184.755Z" fill="white"/>
<path d="M195.474 203.506C195.744 203.485 195.947 203.248 195.926 202.978L195.73 200.528L196.71 200.451C196.979 200.43 197.182 200.192 197.161 199.922C197.14 199.652 196.905 199.452 196.633 199.471L195.166 199.586C194.895 199.609 194.694 199.845 194.715 200.115L194.946 203.055C194.967 203.325 195.205 203.528 195.474 203.506Z" fill="white"/>
<path d="M186.643 192.301C186.372 192.325 186.168 192.558 186.192 192.83L186.19 192.832L186.269 193.81L185.29 193.887C185.02 193.908 184.817 194.146 184.839 194.416C184.86 194.686 185.095 194.886 185.367 194.867L186.344 194.788L186.421 195.768C186.442 196.038 186.68 196.241 186.949 196.219C187.219 196.198 187.421 195.961 187.4 195.691L187.323 194.711L188.301 194.636L188.302 194.633C188.572 194.612 188.773 194.377 188.754 194.105C188.733 193.835 188.495 193.632 188.226 193.654L187.246 193.731L187.172 192.753C187.148 192.481 186.913 192.28 186.643 192.301Z" fill="white"/>
<path d="M102.602 174.938L104.092 175.533L104.589 175.732L105.085 175.93C105.627 174.572 107.181 173.913 108.55 174.46C109.92 175.007 110.593 176.556 110.051 177.913L110.548 178.112L111.045 178.31L112.535 178.905L121.058 177.743L121.232 171.533L117.859 171.328L122.376 160.002L108.47 154.449L103.954 165.774L101.367 163.599L97.2208 168.222L102.602 174.938ZM101.477 165.078L103.267 166.583L104.403 167.537L104.947 166.171L109.071 155.831L120.99 160.591L116.866 170.931L116.321 172.298L117.801 172.388L120.135 172.53L120.016 176.813L112.664 177.815L111.293 177.268C111.434 175.673 110.518 174.104 108.943 173.475C107.368 172.846 105.624 173.353 104.63 174.606L103.259 174.059L98.6168 168.266L101.477 165.078Z" fill="url(#paint1_linear_1077_44)" style="mix-blend-mode:multiply"/>
<path d="M112.565 166.686L112.877 168.561L116.643 165.717L114.751 164.961L112.102 163.903L108.697 162.543L109.63 169.004L112.565 166.686ZM114.496 166.001L113.64 166.647L113.521 165.932L113.791 165.719L114.496 166.001L114.496 166.001ZM112.647 165.262L110.422 167.019L110.016 164.211L112.647 165.262Z" fill="url(#paint2_linear_1077_44)" style="mix-blend-mode:multiply"/>
<g clip-path="url(#clip0_1077_44)">
<path d="M224.046 134.472L231.794 126.995L237.666 132.661C238.837 133.791 240.734 133.791 241.904 132.661C242.489 132.097 242.782 131.357 242.782 130.617C242.782 129.877 242.489 129.136 241.904 128.572L236.032 122.905L243.781 115.428L239.543 111.338L231.794 118.815L225.045 112.302H220.807V116.392L227.557 122.905L219.808 130.382L224.046 134.472ZM232.501 126.313L233.557 125.294L238.016 129.597L236.96 130.617L232.501 126.313ZM241.198 129.254C241.575 129.618 241.783 130.101 241.783 130.617C241.783 131.131 241.575 131.616 241.198 131.98C240.419 132.731 239.151 132.731 238.373 131.98L237.666 131.298L240.492 128.572L241.198 129.254ZM239.785 127.89L238.723 128.915L234.263 124.612L235.326 123.587L239.785 127.89ZM242.368 115.428L240.976 116.771L240.27 116.089C240.075 115.901 239.759 115.901 239.564 116.089C239.369 116.277 239.369 116.582 239.564 116.771C239.564 116.771 239.564 116.771 239.564 116.772L240.27 117.452L238.857 118.816L238.151 118.134C237.956 117.946 237.64 117.946 237.445 118.134C237.25 118.322 237.25 118.628 237.445 118.816C237.445 118.816 237.445 118.816 237.445 118.816L238.151 119.498L236.738 120.861L236.033 120.18C236.033 120.18 236.032 120.179 236.032 120.179C235.837 119.991 235.521 119.991 235.326 120.179C235.131 120.367 235.131 120.672 235.326 120.861H235.326L236.032 121.542L234.62 122.905L233.913 122.224C233.718 122.036 233.402 122.036 233.207 122.224C233.012 122.412 233.012 122.717 233.207 122.905L233.913 123.587L232.501 124.95L231.794 124.269C231.599 124.08 231.283 124.08 231.088 124.269C230.893 124.456 230.893 124.762 231.088 124.95C231.088 124.951 231.088 124.951 231.088 124.951L231.794 125.632L230.382 126.995L229.676 126.313H229.675C229.48 126.125 229.164 126.125 228.969 126.313C228.774 126.502 228.774 126.807 228.969 126.995L229.675 127.676L228.263 129.04L227.557 128.358C227.361 128.17 227.045 128.17 226.85 128.358C226.655 128.546 226.655 128.851 226.85 129.04C226.85 129.04 226.85 129.04 226.851 129.04L227.557 129.721L226.144 131.084L225.438 130.404L225.438 130.403C225.243 130.214 224.926 130.214 224.731 130.403C224.536 130.591 224.536 130.896 224.731 131.084L225.438 131.766L224.046 133.109L221.221 130.382L239.543 112.702L242.368 115.428ZM221.806 113.266H222.633L221.806 114.065V113.266ZM221.806 115.992V115.427L224.046 113.266H224.631L231.088 119.497L230.025 120.523L225.041 115.713C224.846 115.525 224.53 115.525 224.335 115.713C224.14 115.901 224.14 116.206 224.335 116.395L229.319 121.205L228.263 122.224L221.806 115.992Z" fill="url(#paint3_linear_1077_44)" style="mix-blend-mode:multiply"/>
</g>
<path d="M65.1945 130.04L61.0341 125.741C60.8426 125.544 60.527 125.539 60.3298 125.73C60.1316 125.922 60.1263 126.238 60.3177 126.436L64.4782 130.735C64.6697 130.933 64.9852 130.937 65.1835 130.745C65.3807 130.554 65.386 130.238 65.1945 130.04Z" fill="url(#paint4_linear_1077_44)" style="mix-blend-mode:multiply"/>
<path d="M61.7505 125.048L63.1372 126.481C63.3287 126.679 63.644 126.684 63.8417 126.493C64.0393 126.301 64.0439 125.985 63.8524 125.788L62.4657 124.355C62.2742 124.157 61.9591 124.152 61.7615 124.343C61.5638 124.535 61.559 124.85 61.7505 125.048Z" fill="url(#paint5_linear_1077_44)" style="mix-blend-mode:multiply"/>
<path d="M72.1453 135.393L72.6055 133.67L68.2926 134.676L69.6136 136.041L71.4622 137.951L73.84 140.408L75.5451 134.523L72.1453 135.393ZM70.2334 135.247L71.2138 135.019L71.0386 135.676L70.726 135.756L70.2334 135.247ZM71.5244 136.581L74.1017 135.922L73.3613 138.479L71.5244 136.581Z" fill="url(#paint6_linear_1077_44)" style="mix-blend-mode:multiply"/>
<path d="M84.1877 132.46L68.2391 115.98C68.0477 115.783 67.7321 115.777 67.5344 115.969L57.5106 125.684C57.3134 125.875 57.3084 126.192 57.4999 126.389L73.4484 142.869C73.6393 143.066 73.9552 143.071 74.1524 142.88L84.1761 133.165C84.3738 132.973 84.3786 132.657 84.1877 132.46ZM82.4442 132.092L71.4329 129.096C71.3453 129.072 71.2117 128.934 71.1907 128.845L68.5475 117.733L82.4442 132.092ZM58.5628 126.053L67.4526 117.437L70.221 129.076C70.2735 129.297 70.4017 129.512 70.5716 129.688C70.7415 129.863 70.9528 129.999 71.1712 130.058L82.7094 133.198L73.8178 141.816L58.5628 126.053Z" fill="url(#paint7_linear_1077_44)" style="mix-blend-mode:multiply"/>
<path d="M243.158 95.9156C249.176 95.9156 254.054 91.0569 254.054 85.0624C254.054 83.0861 253.524 81.233 252.596 79.6363C253.524 78.0396 254.054 76.1865 254.054 74.2102C254.054 68.2157 249.176 63.3569 243.158 63.3569C239.092 63.3569 235.547 65.5747 233.674 68.8615C228.275 69.5064 224.089 74.084 224.089 79.6363C224.089 85.1886 228.275 89.7662 233.674 90.411C235.547 93.6979 239.092 95.9156 243.158 95.9156ZM232.971 70.352C232.513 71.5512 232.261 72.8509 232.261 74.2102C232.261 76.1865 232.792 78.0396 233.719 79.6363C232.792 81.233 232.261 83.0861 232.261 85.0624C232.261 86.4217 232.513 87.7213 232.971 88.9206C232.391 88.7964 231.825 88.6185 231.275 88.387C230.139 87.909 229.119 87.2235 228.243 86.3511C227.367 85.4787 226.68 84.4632 226.199 83.3325C225.702 82.162 225.45 80.919 225.45 79.6362C225.45 78.3535 225.702 77.1104 226.199 75.94C226.679 74.8093 227.367 73.7938 228.243 72.9214C229.119 72.049 230.139 71.3634 231.275 70.8854C231.825 70.654 232.391 70.4762 232.971 70.352ZM234.536 89.1223C234.479 89.0021 234.424 88.8808 234.372 88.7586C233.875 87.5891 233.623 86.3452 233.623 85.0624C233.623 83.7796 233.875 82.5366 234.372 81.3672C234.438 81.2112 234.508 81.0582 234.582 80.9061C236.512 83.3534 239.474 84.9541 242.816 85.0565C242.494 85.5165 242.131 85.9497 241.727 86.3511C240.851 87.2235 239.831 87.9091 238.696 88.3871C237.522 88.8819 236.273 89.1323 234.985 89.1323C234.835 89.1322 234.685 89.1292 234.536 89.1223ZM243.607 83.6952C243.458 83.7021 243.308 83.7061 243.158 83.7061C241.87 83.7061 240.621 83.4557 239.447 82.9609C238.312 82.482 237.292 81.7974 236.416 80.925C236.014 80.5245 235.652 80.0943 235.332 79.6362C235.652 79.1782 236.014 78.7479 236.416 78.3475C237.292 77.4751 238.312 76.7905 239.447 76.3115C240.621 75.8169 241.87 75.5664 243.158 75.5664C243.308 75.5664 243.458 75.5704 243.607 75.5774C243.664 75.6966 243.719 75.8178 243.771 75.94C244.268 77.1105 244.52 78.3535 244.52 79.6363C244.52 80.919 244.268 82.1621 243.771 83.3325C243.719 83.4547 243.664 83.5759 243.607 83.6952ZM245.882 79.6363C245.882 78.278 245.63 76.9774 245.173 75.7791C245.752 75.9033 246.318 76.0801 246.869 76.3117C248.004 76.7906 249.024 77.4752 249.9 78.3476C250.302 78.748 250.664 79.1782 250.984 79.6363C250.664 80.0944 250.302 80.5246 249.9 80.9251C249.024 81.7975 248.004 82.482 246.869 82.961C246.318 83.1926 245.752 83.3704 245.173 83.4936C245.631 82.2952 245.882 80.9945 245.882 79.6363ZM242.816 74.2161C239.474 74.3185 236.512 75.9192 234.582 78.3665C234.508 78.2144 234.438 78.0614 234.372 77.9055C233.875 76.7359 233.623 75.4929 233.623 74.2102C233.623 72.9275 233.875 71.6835 234.372 70.514C234.424 70.3918 234.479 70.2706 234.536 70.1503C234.685 70.1434 234.835 70.1404 234.985 70.1404C236.273 70.1404 237.522 70.3908 238.696 70.8856C239.831 71.3636 240.851 72.0492 241.727 72.9216C242.131 73.3229 242.494 73.7561 242.816 74.2161ZM251.733 78.3664C249.993 76.1577 247.411 74.6394 244.469 74.2886C242.649 71.0942 239.249 68.9102 235.327 68.789C235.649 68.329 236.012 67.8968 236.416 67.4953C237.292 66.622 238.312 65.9373 239.447 65.4594C240.621 64.9646 241.87 64.7132 243.158 64.7132C244.446 64.7132 245.694 64.9646 246.869 65.4594C248.004 65.9373 249.024 66.6219 249.9 67.4953C250.776 68.3677 251.464 69.3832 251.944 70.5139C252.441 71.6834 252.693 72.9274 252.693 74.2102C252.693 75.4929 252.441 76.7359 251.944 77.9054C251.878 78.0614 251.807 78.2144 251.733 78.3664ZM246.869 93.8132C245.694 94.308 244.446 94.5594 243.158 94.5594C241.87 94.5594 240.621 94.308 239.447 93.8132C238.312 93.3352 237.292 92.6507 236.416 91.7772C236.012 91.3759 235.649 90.9436 235.327 90.4835C239.249 90.3623 242.649 88.1784 244.469 84.9839C247.411 84.6331 249.993 83.1149 251.733 80.9061C251.807 81.0582 251.878 81.2112 251.944 81.3672C252.441 82.5367 252.693 83.7797 252.693 85.0624C252.693 86.3451 252.441 87.5891 251.944 88.7586C251.464 89.8893 250.776 90.9048 249.9 91.7772C249.024 92.6506 248.004 93.3352 246.869 93.8132Z" fill="url(#paint8_linear_1077_44)" style="mix-blend-mode:multiply"/>
<path d="M219.031 1.71016L214.705 8.00367L212.851 10.701L208.524 16.9952L229.469 32.7388L241.212 15.6561L219.031 1.71016ZM219.337 3.19076L221.185 4.35331L217.4 9.85924L215.604 8.62227L219.337 3.19076ZM214.985 9.52182L218.579 11.9958L217.961 12.8946L214.367 10.4207L214.985 9.52182ZM213.75 11.3196L215.546 12.5566L211.761 18.0631L210.016 16.7511L213.75 11.3196ZM229.214 31.1829L212.634 18.7193L216.445 13.1752L218.242 14.4121C218.49 14.5829 218.829 14.5204 218.999 14.2722C219.17 14.024 219.108 13.684 218.859 13.5132C219.108 13.684 219.447 13.6209 219.618 13.3726C219.788 13.1244 219.725 12.7852 219.477 12.6144C219.725 12.7852 220.065 12.722 220.236 12.4738C220.406 12.2255 220.344 11.8856 220.096 11.7148L218.299 10.4778L222.11 4.93439L239.669 15.9743L229.214 31.1829Z" fill="white"/>
<path d="M224.171 14.7735L226.463 19.5334L223.787 19.3662L226.551 25.4326L228.17 23.0777L230.436 19.7811L233.35 15.5422L224.171 14.7735ZM226.744 23.2254L225.534 20.5685L227.006 20.66L227.624 21.9452L226.744 23.2253L226.744 23.2254ZM228.336 20.9093L225.982 16.0202L231.386 16.4728L228.336 20.9093Z" fill="white"/>
<g clip-path="url(#clip1_1077_44)">
<path d="M124.229 225.539C126.155 225.539 127.716 223.977 127.716 222.049C127.716 221.791 127.688 221.54 127.635 221.298L129.946 218.985L136.218 225.261C137.305 226.349 139.066 226.349 140.152 225.261C140.696 224.718 140.967 224.006 140.967 223.293C140.967 222.581 140.696 221.868 140.152 221.324L133.88 215.048L141.024 207.899C141.386 207.537 141.567 207.061 141.567 206.587C141.567 206.112 141.386 205.636 141.024 205.274C140.3 204.549 139.126 204.549 138.401 205.274L131.258 212.423L124.501 205.661H120.567V209.598L127.324 216.36L125.033 218.653C124.775 218.591 124.506 218.559 124.229 218.559C120.28 218.559 119.967 224.387 119.967 226.315C119.967 228.242 122.303 225.539 124.229 225.539ZM140.04 223.293C140.04 223.789 139.847 224.255 139.497 224.605C138.774 225.329 137.597 225.329 136.874 224.605L136.218 223.949L138.841 221.324L139.497 221.98C139.847 222.331 140.04 222.797 140.04 223.293ZM139.057 205.93C139.418 205.568 140.007 205.568 140.368 205.93C140.543 206.105 140.64 206.339 140.64 206.587C140.64 206.834 140.543 207.067 140.368 207.243L133.225 214.391L131.913 213.079L139.057 205.93ZM121.494 206.59H122.262L121.494 207.358V206.59ZM121.494 209.214V208.671L123.574 206.59H124.117L138.185 220.668L137.199 221.656L124.498 208.945C124.317 208.764 124.023 208.764 123.842 208.945C123.661 209.126 123.661 209.42 123.842 209.601L136.543 222.312L135.563 223.293L121.494 209.214ZM127.979 217.016L129.291 218.328L127.274 220.347C126.967 219.798 126.516 219.34 125.972 219.025L127.979 217.016ZM121.496 222.01C121.768 221.203 122.122 220.581 122.548 220.161C123.008 219.708 123.558 219.488 124.229 219.488C124.913 219.488 125.556 219.753 126.039 220.237C126.523 220.721 126.789 221.365 126.789 222.049C126.789 223.462 125.64 224.611 124.229 224.611C123.173 224.611 122.144 225.174 121.317 225.627C121.193 225.694 121.044 225.775 120.9 225.85C120.927 224.851 121.049 223.337 121.496 222.01Z" fill="url(#paint9_linear_1077_44)" style="mix-blend-mode:multiply"/>
</g>
<g clip-path="url(#clip2_1077_44)">
<path d="M156.925 148.768L145.306 189.804L154.111 192.302L165.731 151.265L156.925 148.768ZM147.189 188.752L148.009 185.858L149.477 186.275C149.882 186.389 150.303 186.154 150.419 185.748C150.533 185.343 150.298 184.921 149.893 184.805C149.892 184.806 149.892 184.806 149.892 184.806L148.425 184.39L149.256 181.452L150.723 181.868C151.129 181.984 151.551 181.748 151.666 181.342C151.78 180.937 151.545 180.514 151.14 180.4L149.672 179.984L150.504 177.046L151.971 177.462L151.972 177.462C152.376 177.577 152.799 177.341 152.913 176.936C153.028 176.53 152.793 176.108 152.387 175.994C152.387 175.993 152.387 175.993 152.387 175.993L150.92 175.577L151.752 172.64L153.219 173.056C153.624 173.171 154.046 172.935 154.161 172.53C154.275 172.125 154.04 171.702 153.635 171.587L152.167 171.171L152.999 168.234L154.466 168.65C154.872 168.765 155.293 168.529 155.408 168.124C155.523 167.718 155.288 167.296 154.882 167.181L153.414 166.765L154.246 163.828L155.714 164.244C156.119 164.359 156.541 164.123 156.655 163.718C156.77 163.312 156.535 162.89 156.129 162.776C156.129 162.775 156.129 162.775 156.129 162.775L154.662 162.359L155.494 159.422L156.961 159.838C157.367 159.953 157.788 159.717 157.903 159.312C158.018 158.906 157.782 158.484 157.378 158.369C157.378 158.369 157.378 158.369 157.377 158.37L155.909 157.953L156.741 155.016L158.208 155.431C158.208 155.432 158.208 155.432 158.208 155.432C158.614 155.547 159.035 155.311 159.15 154.905C159.266 154.5 159.03 154.078 158.625 153.963L157.157 153.547L157.977 150.653L163.847 152.317L153.06 190.417L147.189 188.752Z" fill="url(#paint10_linear_1077_44)" style="mix-blend-mode:multiply"/>
</g>
<path d="M229.411 181.805L244.313 169.769C244.491 169.625 244.52 169.363 244.375 169.184L236.009 158.81C235.865 158.631 235.602 158.603 235.424 158.747L230.048 163.089L228.867 160.831L228.996 160.727C229.175 160.582 229.203 160.32 229.058 160.141C228.914 159.962 228.652 159.934 228.473 160.078L223.29 164.265C223.111 164.409 223.083 164.671 223.227 164.85C223.372 165.029 223.634 165.057 223.813 164.913L223.943 164.808L225.899 166.44L220.522 170.783C220.344 170.927 220.316 171.189 220.46 171.368L228.826 181.742C228.971 181.921 229.233 181.949 229.411 181.805ZM228.206 161.365L229.385 163.62L226.558 165.905L224.603 164.275L228.206 161.365L228.206 161.365ZM229.213 180.895L222.415 172.466L236.668 160.954L243.465 169.383L229.213 180.895ZM228.496 165.413L235.622 159.657L236.145 160.306L229.019 166.062L221.892 171.818L221.369 171.169L228.496 165.413Z" fill="url(#paint11_linear_1077_44)" style="mix-blend-mode:multiply"/>
<path d="M228.434 165.999C228.578 166.178 228.84 166.206 229.019 166.061C229.197 165.917 229.225 165.655 229.081 165.476C228.937 165.297 228.675 165.269 228.496 165.413C228.317 165.558 228.29 165.82 228.434 165.999Z" fill="url(#paint12_linear_1077_44)" style="mix-blend-mode:multiply"/>
<path d="M241.448 168.872L231.731 176.72C231.731 176.72 231.73 176.721 231.73 176.721C231.551 176.865 231.523 177.128 231.668 177.307C231.812 177.486 232.074 177.514 232.253 177.37L241.971 169.52C242.15 169.376 242.178 169.113 242.034 168.934C241.89 168.755 241.627 168.727 241.448 168.872Z" fill="url(#paint13_linear_1077_44)" style="mix-blend-mode:multiply"/>
<path d="M240.402 167.576L235.22 171.762C235.219 171.762 235.219 171.762 235.219 171.762C235.04 171.907 235.013 172.169 235.157 172.348C235.302 172.527 235.563 172.555 235.742 172.411L240.925 168.225C241.104 168.08 241.132 167.817 240.988 167.638C240.844 167.459 240.581 167.431 240.402 167.576Z" fill="url(#paint14_linear_1077_44)" style="mix-blend-mode:multiply"/>
<path d="M239.356 166.276L232.23 172.032C232.23 172.032 232.23 172.032 232.23 172.032C232.051 172.177 232.023 172.439 232.167 172.618C232.312 172.797 232.574 172.825 232.753 172.681L239.879 166.925C240.058 166.78 240.087 166.518 239.942 166.338C239.798 166.159 239.535 166.131 239.356 166.276Z" fill="url(#paint15_linear_1077_44)" style="mix-blend-mode:multiply"/>
<path d="M238.311 164.982L233.777 168.644C233.597 168.789 233.569 169.052 233.713 169.231C233.858 169.41 234.12 169.437 234.299 169.293L238.834 165.63C239.013 165.485 239.042 165.223 238.897 165.044C238.753 164.865 238.491 164.837 238.311 164.982Z" fill="url(#paint16_linear_1077_44)" style="mix-blend-mode:multiply"/>
<path d="M237.264 163.684L228.843 170.486L228.842 170.486C228.663 170.631 228.635 170.894 228.779 171.073C228.924 171.252 229.186 171.279 229.365 171.135L237.787 164.332C237.966 164.188 237.995 163.925 237.85 163.746C237.706 163.567 237.444 163.539 237.264 163.684Z" fill="url(#paint17_linear_1077_44)" style="mix-blend-mode:multiply"/>
<path d="M236.219 162.388L233.628 164.481C233.449 164.626 233.421 164.888 233.565 165.067C233.71 165.246 233.972 165.274 234.151 165.129L236.742 163.037C236.922 162.892 236.95 162.629 236.805 162.45C236.661 162.271 236.399 162.243 236.219 162.388Z" fill="url(#paint18_linear_1077_44)" style="mix-blend-mode:multiply"/>
<path d="M122.965 105.095L126.39 101.839L115.252 98.1331L116.347 103.049L117.881 109.931L119.853 118.778L131.852 107.843L122.965 105.095ZM117.463 100.584L123.305 102.528L121.184 104.545L118.136 103.602L117.463 100.584ZM118.544 105.431L128.654 108.557L120.83 115.688L118.544 105.431Z" fill="white"/>
<path d="M144.398 113.299L146.019 112.937C146.466 112.837 146.75 112.401 146.652 111.963C146.554 111.523 146.113 111.249 145.665 111.349L144.044 111.711L143.336 108.534L144.957 108.173C145.405 108.073 145.688 107.637 145.59 107.199C145.492 106.759 145.051 106.485 144.603 106.585L142.983 106.947L142.275 103.771L143.895 103.409C144.343 103.309 144.626 102.873 144.529 102.434C144.431 101.995 143.989 101.721 143.541 101.821L141.921 102.182L141.213 99.0065L142.834 98.6447C143.281 98.5448 143.565 98.1086 143.467 97.6701C143.369 97.231 142.927 96.9566 142.48 97.0564L140.859 97.4182L140.151 94.2423L141.772 93.8805C142.219 93.7806 142.503 93.3444 142.405 92.9058C142.307 92.4668 141.865 92.1923 141.418 92.2922L139.797 92.654L138.735 87.8898L103.08 95.8481L109.805 126.021L145.46 118.063L144.398 113.299ZM111.039 124.079L105.022 97.082L137.502 89.8323L138.21 93.0082L136.657 93.3548C136.21 93.4547 135.926 93.8911 136.024 94.3302C136.121 94.7687 136.564 95.043 137.011 94.9431L138.564 94.5965L139.272 97.7725L137.719 98.119C137.272 98.2189 136.988 98.6553 137.085 99.0944C137.183 99.533 137.626 99.8072 138.073 99.7073L139.626 99.3607L140.334 102.537L138.781 102.883C138.333 102.983 138.049 103.42 138.147 103.859C138.245 104.297 138.687 104.571 139.135 104.472L140.688 104.125L141.395 107.301L139.843 107.647C139.395 107.747 139.111 108.183 139.209 108.623C139.307 109.061 139.749 109.335 140.196 109.235L141.749 108.889L142.457 112.065L140.904 112.412C140.457 112.512 140.173 112.947 140.271 113.387C140.369 113.826 140.811 114.099 141.258 113.999L142.811 113.653L143.519 116.829L111.039 124.079Z" fill="white"/>
<path d="M207.449 122.674L190.321 103.193C190.116 102.959 189.76 102.936 189.526 103.142L175.984 115.066C175.75 115.272 175.728 115.628 175.934 115.862L182.113 122.891L179.128 124.62L178.979 124.45C178.774 124.216 178.417 124.194 178.184 124.399C177.95 124.605 177.927 124.962 178.133 125.196L184.091 131.972C184.296 132.206 184.652 132.228 184.886 132.022C185.119 131.817 185.143 131.46 184.937 131.227L184.788 131.057L186.881 128.313L193.061 135.343C193.267 135.577 193.623 135.6 193.856 135.394L207.398 123.47C207.632 123.264 207.655 122.908 207.449 122.674ZM179.888 125.483L182.868 123.757L186.119 127.453L184.029 130.194L179.888 125.483L179.888 125.483ZM201.999 126.722L199.765 124.181L203.996 120.455L206.23 122.996L201.999 126.722ZM198.918 124.926L201.152 127.467L195.228 132.684L192.994 130.143L198.918 124.926ZM203.252 119.608L192.249 129.296L178.845 114.05L189.848 104.362L203.252 119.608ZM185.343 124.857L177.152 115.541L177.999 114.796L186.19 124.112L194.381 133.429L193.535 134.175L185.343 124.857Z" fill="url(#paint19_linear_1077_44)" style="mix-blend-mode:multiply"/>
<path d="M186.139 124.908C186.373 124.702 186.396 124.346 186.19 124.112C185.984 123.878 185.628 123.855 185.395 124.061C185.161 124.267 185.138 124.623 185.343 124.857C185.549 125.091 185.905 125.114 186.139 124.908Z" fill="url(#paint20_linear_1077_44)" style="mix-blend-mode:multiply"/>
<path d="M189.366 119.169L191.919 122.073L194.164 115.517L190.275 116.315L190.888 114.393L185.961 115.296L187.38 116.91L189.366 119.169ZM192.458 117.019L191.482 119.868L189.51 117.624L192.458 117.019ZM188.123 116.047L189.243 115.842L189.009 116.575L188.652 116.649L188.123 116.047Z" fill="url(#paint21_linear_1077_44)" style="mix-blend-mode:multiply"/>
<path d="M191.134 109.239L190.39 108.393L189.543 109.138L190.288 109.985L191.134 109.239Z" fill="url(#paint22_linear_1077_44)" style="mix-blend-mode:multiply"/>
<path d="M195.229 113.898L194.485 113.051L193.638 113.797L194.383 114.643L195.229 113.898Z" fill="url(#paint23_linear_1077_44)" style="mix-blend-mode:multiply"/>
<path d="M199.325 118.556L198.58 117.708L197.733 118.454L198.479 119.301L199.325 118.556Z" fill="url(#paint24_linear_1077_44)" style="mix-blend-mode:multiply"/>
<path d="M195.94 121.538L195.194 120.691L194.348 121.436L195.093 122.283L195.94 121.538Z" fill="url(#paint25_linear_1077_44)" style="mix-blend-mode:multiply"/>
<path d="M192.554 124.519L191.809 123.671L190.963 124.417L191.708 125.264L192.554 124.519Z" fill="url(#paint26_linear_1077_44)" style="mix-blend-mode:multiply"/>
<path d="M184.362 115.203L183.618 114.356L182.771 115.101L183.516 115.948L184.362 115.203Z" fill="url(#paint27_linear_1077_44)" style="mix-blend-mode:multiply"/>
<path d="M187.748 112.222L187.003 111.375L186.157 112.12L186.902 112.967L187.748 112.222Z" fill="url(#paint28_linear_1077_44)" style="mix-blend-mode:multiply"/>
<path d="M188.458 119.861L187.713 119.015L186.867 119.76L187.611 120.607L188.458 119.861Z" fill="url(#paint29_linear_1077_44)" style="mix-blend-mode:multiply"/>
<path d="M173.146 240C168.582 240 164.876 236.296 164.876 231.719C164.876 227.143 168.582 223.439 173.146 223.439C177.71 223.439 181.417 227.143 181.417 231.719C181.417 236.296 177.71 240 173.146 240Z" stroke="url(#paint30_linear_1077_44)" stroke-width="10" style="mix-blend-mode:multiply"/>
<path d="M31.6167 161.89H34.967V156.794H40.8697V153.276H34.967V148.181H31.6167V153.276H25.4588V156.794H31.6167V161.89Z" fill="white"/>
<path d="M4.05468 196.566C5.34437 196.566 16.3402 193.048 12.4711 206.769C8.60201 220.49 15.0505 224.712 27.4785 227.527C39.9065 230.341 41.079 238.55 40.8445 245" stroke="url(#paint31_linear_1077_44)" stroke-width="8" stroke-linecap="round" stroke-linejoin="round" style="mix-blend-mode:multiply"/>
<path d="M215.716 234.03C215.485 233.577 212.285 230.338 217.775 229.25C223.266 228.162 223.587 225.141 222.343 220.268C221.1 215.396 223.76 213.519 226.057 212.45" stroke="url(#paint32_linear_1077_44)" stroke-width="8" stroke-linecap="round" stroke-linejoin="round" style="mix-blend-mode:multiply"/>
<defs>
<linearGradient id="paint0_linear_1077_44" x1="204.529" y1="79.2459" x2="194.599" y2="45.5825" gradientUnits="userSpaceOnUse">
<stop stop-color="white"/>
<stop offset="1" stop-color="#FF8A00"/>
</linearGradient>
<linearGradient id="paint1_linear_1077_44" x1="96.1497" y1="171.809" x2="125.625" y2="172.895" gradientUnits="userSpaceOnUse">
<stop stop-color="white"/>
<stop offset="1" stop-color="#FF8A00"/>
</linearGradient>
<linearGradient id="paint2_linear_1077_44" x1="106.756" y1="167.709" x2="116.282" y2="167.327" gradientUnits="userSpaceOnUse">
<stop stop-color="white"/>
<stop offset="1" stop-color="#FF8A00"/>
</linearGradient>
<linearGradient id="paint3_linear_1077_44" x1="243.201" y1="134.171" x2="235.773" y2="108.056" gradientUnits="userSpaceOnUse">
<stop stop-color="white"/>
<stop offset="1" stop-color="#FF8A00"/>
</linearGradient>
<linearGradient id="paint4_linear_1077_44" x1="65.4607" y1="130.35" x2="61.9317" y2="131.51" gradientUnits="userSpaceOnUse">
<stop stop-color="white"/>
<stop offset="1" stop-color="#FF8A00"/>
</linearGradient>
<linearGradient id="paint5_linear_1077_44" x1="64.155" y1="126.135" x2="61.4309" y2="125.925" gradientUnits="userSpaceOnUse">
<stop stop-color="white"/>
<stop offset="1" stop-color="#FF8A00"/>
</linearGradient>
<linearGradient id="paint6_linear_1077_44" x1="77.4943" y1="136.722" x2="69.2455" y2="133.38" gradientUnits="userSpaceOnUse">
<stop stop-color="white"/>
<stop offset="1" stop-color="#FF8A00"/>
</linearGradient>
<linearGradient id="paint7_linear_1077_44" x1="84.058" y1="132.846" x2="59.3524" y2="123.533" gradientUnits="userSpaceOnUse">
<stop stop-color="white"/>
<stop offset="1" stop-color="#FF8A00"/>
</linearGradient>
<linearGradient id="paint8_linear_1077_44" x1="253.33" y1="95.4924" x2="241.79" y2="59.4591" gradientUnits="userSpaceOnUse">
<stop stop-color="white"/>
<stop offset="1" stop-color="#FF8A00"/>
</linearGradient>
<linearGradient id="paint9_linear_1077_44" x1="141.045" y1="226.718" x2="133.48" y2="201.834" gradientUnits="userSpaceOnUse">
<stop stop-color="white"/>
<stop offset="1" stop-color="#FF8A00"/>
</linearGradient>
<linearGradient id="paint10_linear_1077_44" x1="162.591" y1="146.616" x2="132.591" y2="177.232" gradientUnits="userSpaceOnUse">
<stop stop-color="white"/>
<stop offset="1" stop-color="#FF8A00"/>
</linearGradient>
<linearGradient id="paint11_linear_1077_44" x1="229.024" y1="181.574" x2="241.445" y2="162.076" gradientUnits="userSpaceOnUse">
<stop stop-color="white"/>
<stop offset="1" stop-color="#FF8A00"/>
</linearGradient>
<linearGradient id="paint12_linear_1077_44" x1="228.691" y1="166.3" x2="229.245" y2="165.5" gradientUnits="userSpaceOnUse">
<stop stop-color="white"/>
<stop offset="1" stop-color="#FF8A00"/>
</linearGradient>
<linearGradient id="paint13_linear_1077_44" x1="232.051" y1="177.506" x2="230.522" y2="174.499" gradientUnits="userSpaceOnUse">
<stop stop-color="white"/>
<stop offset="1" stop-color="#FF8A00"/>
</linearGradient>
<linearGradient id="paint14_linear_1077_44" x1="235.482" y1="172.595" x2="234.47" y2="169.531" gradientUnits="userSpaceOnUse">
<stop stop-color="white"/>
<stop offset="1" stop-color="#FF8A00"/>
</linearGradient>
<linearGradient id="paint15_linear_1077_44" x1="232.517" y1="172.845" x2="231.214" y2="169.792" gradientUnits="userSpaceOnUse">
<stop stop-color="white"/>
<stop offset="1" stop-color="#FF8A00"/>
</linearGradient>
<linearGradient id="paint16_linear_1077_44" x1="234.03" y1="169.485" x2="233.158" y2="166.431" gradientUnits="userSpaceOnUse">
<stop stop-color="white"/>
<stop offset="1" stop-color="#FF8A00"/>
</linearGradient>
<linearGradient id="paint17_linear_1077_44" x1="229.146" y1="171.286" x2="227.713" y2="168.255" gradientUnits="userSpaceOnUse">
<stop stop-color="white"/>
<stop offset="1" stop-color="#FF8A00"/>
</linearGradient>
<linearGradient id="paint18_linear_1077_44" x1="233.856" y1="165.342" x2="233.62" y2="162.497" gradientUnits="userSpaceOnUse">
<stop stop-color="white"/>
<stop offset="1" stop-color="#FF8A00"/>
</linearGradient>
<linearGradient id="paint19_linear_1077_44" x1="207.159" y1="123.212" x2="180.065" y2="107.555" gradientUnits="userSpaceOnUse">
<stop stop-color="white"/>
<stop offset="1" stop-color="#FF8A00"/>
</linearGradient>
<linearGradient id="paint20_linear_1077_44" x1="186.532" y1="124.542" x2="185.416" y2="123.839" gradientUnits="userSpaceOnUse">
<stop stop-color="white"/>
<stop offset="1" stop-color="#FF8A00"/>
</linearGradient>
<linearGradient id="paint21_linear_1077_44" x1="196.246" y1="118.106" x2="187.107" y2="113.885" gradientUnits="userSpaceOnUse">
<stop stop-color="white"/>
<stop offset="1" stop-color="#FF8A00"/>
</linearGradient>
<linearGradient id="paint22_linear_1077_44" x1="191.104" y1="109.246" x2="189.988" y2="108.543" gradientUnits="userSpaceOnUse">
<stop stop-color="white"/>
<stop offset="1" stop-color="#FF8A00"/>
</linearGradient>
<linearGradient id="paint23_linear_1077_44" x1="195.199" y1="113.905" x2="194.083" y2="113.202" gradientUnits="userSpaceOnUse">
<stop stop-color="white"/>
<stop offset="1" stop-color="#FF8A00"/>
</linearGradient>
<linearGradient id="paint24_linear_1077_44" x1="199.295" y1="118.563" x2="198.178" y2="117.859" gradientUnits="userSpaceOnUse">
<stop stop-color="white"/>
<stop offset="1" stop-color="#FF8A00"/>
</linearGradient>
<linearGradient id="paint25_linear_1077_44" x1="195.909" y1="121.545" x2="194.792" y2="120.842" gradientUnits="userSpaceOnUse">
<stop stop-color="white"/>
<stop offset="1" stop-color="#FF8A00"/>
</linearGradient>
<linearGradient id="paint26_linear_1077_44" x1="192.524" y1="124.526" x2="191.407" y2="123.822" gradientUnits="userSpaceOnUse">
<stop stop-color="white"/>
<stop offset="1" stop-color="#FF8A00"/>
</linearGradient>
<linearGradient id="paint27_linear_1077_44" x1="184.332" y1="115.21" x2="183.216" y2="114.506" gradientUnits="userSpaceOnUse">
<stop stop-color="white"/>
<stop offset="1" stop-color="#FF8A00"/>
</linearGradient>
<linearGradient id="paint28_linear_1077_44" x1="187.718" y1="112.229" x2="186.601" y2="111.525" gradientUnits="userSpaceOnUse">
<stop stop-color="white"/>
<stop offset="1" stop-color="#FF8A00"/>
</linearGradient>
<linearGradient id="paint29_linear_1077_44" x1="188.428" y1="119.868" x2="187.311" y2="119.165" gradientUnits="userSpaceOnUse">
<stop stop-color="white"/>
<stop offset="1" stop-color="#FF8A00"/>
</linearGradient>
<linearGradient id="paint30_linear_1077_44" x1="185.775" y1="244.655" x2="176.98" y2="214.839" gradientUnits="userSpaceOnUse">
<stop stop-color="white"/>
<stop offset="1" stop-color="#FF8A00"/>
</linearGradient>
<linearGradient id="paint31_linear_1077_44" x1="39.9794" y1="244.365" x2="19.7684" y2="192.675" gradientUnits="userSpaceOnUse">
<stop stop-color="white"/>
<stop offset="1" stop-color="#FF8A00"/>
</linearGradient>
<linearGradient id="paint32_linear_1077_44" x1="225.99" y1="212.867" x2="211.472" y2="229.139" gradientUnits="userSpaceOnUse">
<stop stop-color="white"/>
<stop offset="1" stop-color="#FF8A00"/>
</linearGradient>
<clipPath id="clip0_1077_44">
<rect width="23.1338" height="23.9726" fill="white" transform="translate(243.781 111.338) rotate(90)"/>
</clipPath>
<clipPath id="clip1_1077_44">
<rect width="22.277" height="22.2602" fill="white" transform="translate(141.897 204.731) rotate(90)"/>
</clipPath>
<clipPath id="clip2_1077_44">
<rect width="36.6147" height="36.6292" fill="white" transform="matrix(0.872932 -0.487842 0.487283 0.873244 130.613 163.473)"/>
</clipPath>
</defs>
</svg>
