<svg width="250" height="248" viewBox="0 0 250 248" fill="none" xmlns="http://www.w3.org/2000/svg">
<path d="M212.696 122.881C212.546 120.504 211.433 118.163 209.357 116.346C204.881 112.429 197.624 112.429 193.148 116.346C190.91 118.305 189.791 120.872 189.791 123.44C189.791 126.007 190.91 128.574 193.148 130.533C195.224 132.349 197.898 133.324 200.615 133.455L212.696 122.881ZM197.423 120.626V118.639L201.434 120.745L199.594 121.711L197.423 120.626ZM197.423 121.588L204.094 124.925L197.423 128.261V121.588ZM201.707 131.318C201.834 130.675 202.039 130.046 202.322 129.436C202.85 128.297 203.626 127.273 204.629 126.395C205.705 125.453 206.968 124.742 208.381 124.281C208.993 124.081 209.619 123.933 210.254 123.837L201.707 131.318ZM197.025 131.861C195.831 131.402 194.754 130.756 193.823 129.942C192.82 129.064 192.043 128.04 191.515 126.901C191.005 125.798 190.746 124.635 190.746 123.44C190.746 122.245 191.005 121.081 191.515 119.979C192.043 118.839 192.82 117.816 193.823 116.938C194.827 116.06 195.996 115.38 197.298 114.918C198.557 114.47 199.887 114.244 201.252 114.244C202.618 114.244 203.948 114.47 205.207 114.918C206.509 115.38 207.679 116.06 208.682 116.938C209.613 117.752 210.35 118.695 210.874 119.739C211.325 120.637 211.605 121.584 211.711 122.562L211.341 122.886C209.287 122.998 207.262 123.591 205.503 124.666L200.545 122.186L203.29 120.745L196.468 117.162V120.148V124.327V129.701L203.587 126.141C201.767 127.887 200.778 130.059 200.62 132.268L200.249 132.593C199.133 132.501 198.05 132.255 197.025 131.861Z" fill="url(#paint0_linear_1077_121)" style="mix-blend-mode:multiply"/>
<path d="M217.278 208.989L210.728 204.093L210.132 203.647L203.581 198.751L193.346 209.239L199.896 214.135L200.493 214.581L207.043 219.478L217.278 208.989ZM194.406 209.166L203.665 199.678L209.643 204.147L200.384 213.635L194.406 209.166ZM210.24 204.593L216.219 209.062L206.96 218.55L200.981 214.081L210.24 204.593L210.24 204.593Z" fill="white"/>
<path d="M210.712 210.218L212.2 210.436L211.007 207.323L209.962 208.394L208.5 209.893L206.621 211.818L211.716 212.666L210.712 210.218ZM210.717 208.633L211.092 209.607L210.419 209.509L210.256 209.106L210.717 208.633ZM209.694 209.681L210.566 211.806L208.032 211.385L209.694 209.681Z" fill="white"/>
<path d="M206.293 211.144L210.193 207.147C210.327 207.011 210.308 206.802 210.15 206.684C209.994 206.567 209.755 206.583 209.622 206.72L205.722 210.717C205.587 210.855 205.608 211.062 205.764 211.178C205.922 211.296 206.158 211.282 206.293 211.144Z" fill="white"/>
<path d="M203.63 202.241C203.763 202.104 203.746 201.897 203.589 201.779C203.431 201.661 203.194 201.679 203.061 201.816C202.926 201.954 202.943 202.161 203.101 202.279C203.258 202.397 203.495 202.379 203.63 202.241Z" fill="white"/>
<path d="M202.656 203.24C202.789 203.104 202.772 202.896 202.614 202.778C202.456 202.66 202.22 202.678 202.086 202.815C201.952 202.953 201.968 203.16 202.126 203.278C202.284 203.396 202.521 203.378 202.656 203.24Z" fill="white"/>
<path d="M201.679 204.241C201.814 204.102 201.797 203.895 201.639 203.777C201.481 203.659 201.245 203.677 201.11 203.815C200.977 203.952 200.993 204.159 201.151 204.277C201.309 204.395 201.546 204.377 201.679 204.241Z" fill="white"/>
<path d="M200.704 205.238C200.839 205.1 200.822 204.893 200.664 204.775C200.506 204.657 200.27 204.675 200.135 204.813C200.002 204.949 200.019 205.156 200.177 205.274C200.335 205.392 200.571 205.374 200.704 205.238Z" fill="white"/>
<path d="M199.73 206.239C199.865 206.1 199.847 205.895 199.689 205.777C199.531 205.658 199.296 205.675 199.161 205.813C199.026 205.951 199.045 206.156 199.203 206.274C199.361 206.392 199.595 206.377 199.73 206.239Z" fill="white"/>
<path d="M201.938 204.987L200.059 206.913L205.153 207.76L204.148 205.311L205.638 205.53L204.445 202.418L203.4 203.489L201.938 204.987L201.938 204.987ZM201.468 206.478L203.13 204.775L204.002 206.899L201.468 206.478ZM204.153 203.727L204.528 204.7L203.857 204.603L203.692 204.199L204.153 203.727L204.153 203.727Z" fill="white"/>
<path d="M205.221 216.262C205.427 216.248 205.582 216.089 205.566 215.908L205.417 214.271L206.166 214.219C206.372 214.205 206.527 214.046 206.511 213.866C206.494 213.685 206.315 213.551 206.107 213.564L204.986 213.641C204.778 213.657 204.625 213.814 204.641 213.994L204.818 215.96C204.834 216.14 205.015 216.276 205.221 216.262Z" fill="white"/>
<path d="M198.471 208.771C198.263 208.787 198.108 208.943 198.126 209.125L198.125 209.126L198.185 209.78L197.436 209.831C197.23 209.846 197.075 210.004 197.091 210.185C197.108 210.365 197.287 210.499 197.495 210.487L198.242 210.434L198.301 211.089C198.317 211.269 198.499 211.405 198.704 211.391C198.911 211.376 199.066 211.218 199.049 211.037L198.991 210.382L199.738 210.332L199.739 210.33C199.945 210.316 200.099 210.159 200.084 209.977C200.068 209.797 199.887 209.661 199.68 209.675L198.932 209.727L198.875 209.073C198.857 208.891 198.677 208.757 198.471 208.771Z" fill="white"/>
<path d="M134.23 197.164L135.369 197.561L135.749 197.694L136.128 197.827C136.542 196.919 137.73 196.478 138.777 196.844C139.823 197.209 140.338 198.245 139.924 199.153L140.304 199.285L140.684 199.418L141.822 199.816L148.338 199.039L148.47 194.887L145.892 194.75L149.345 187.179L138.716 183.466L135.263 191.037L133.286 189.583L130.116 192.674L134.23 197.164ZM133.37 190.572L134.738 191.578L135.606 192.216L136.023 191.303L139.175 184.39L148.286 187.573L145.133 194.485L144.717 195.398L145.848 195.459L147.632 195.553L147.541 198.417L141.921 199.087L140.873 198.721C140.981 197.655 140.281 196.606 139.077 196.185C137.873 195.765 136.54 196.104 135.78 196.942L134.732 196.576L131.184 192.703L133.37 190.572Z" fill="url(#paint1_linear_1077_121)" style="mix-blend-mode:multiply"/>
<path d="M141.846 191.647L142.084 192.9L144.963 190.999L143.517 190.494L141.492 189.787L138.889 188.878L139.602 193.197L141.846 191.647ZM143.322 191.189L142.668 191.621L142.577 191.143L142.783 191.001L143.322 191.189L143.322 191.189ZM141.908 190.695L140.207 191.87L139.897 189.993L141.908 190.695Z" fill="url(#paint2_linear_1077_121)" style="mix-blend-mode:multiply"/>
<g clip-path="url(#clip0_1077_121)">
<path d="M57.5587 57.85L63.4817 52.8517L67.9703 56.6395C68.8648 57.3946 70.3152 57.3946 71.2096 56.6395C71.657 56.2619 71.8807 55.7673 71.8807 55.2727C71.8807 54.7781 71.657 54.2831 71.2096 53.9055L66.721 50.1177L72.644 45.1193L69.4047 42.3853L63.4817 47.3836L58.3224 43.0295H55.0828V45.7635L60.2424 50.1177L54.3194 55.116L57.5587 57.85ZM64.0217 52.3957L64.8292 51.7143L68.2379 54.5913L67.4304 55.2727L64.0217 52.3957ZM70.67 54.3614C70.9583 54.6049 71.1171 54.9282 71.1171 55.2727C71.1171 55.6168 70.9583 55.9405 70.67 56.1841C70.0744 56.6862 69.1056 56.6862 68.5103 56.1841L67.9703 55.7282L70.1301 53.9055L70.67 54.3614ZM69.5901 53.4501L68.7779 54.1354L65.3691 51.2588L66.1812 50.5731L69.5901 53.4501ZM71.5642 45.1193L70.5005 46.0169L69.9606 45.561C69.8116 45.4355 69.5697 45.4355 69.4207 45.561C69.2716 45.687 69.2716 45.8909 69.4207 46.0169C69.4207 46.0169 69.421 46.0169 69.4212 46.0174L69.9606 46.4723L68.8807 47.3837L68.3408 46.9282C68.1918 46.8022 67.9499 46.8022 67.8009 46.9282C67.6518 47.0538 67.6518 47.2581 67.8009 47.3837C67.8012 47.3837 67.8012 47.3837 67.8012 47.3837L68.3408 47.8396L67.2609 48.7509L66.7216 48.2955C66.7216 48.2955 66.7213 48.295 66.721 48.295C66.572 48.1695 66.3304 48.1695 66.1814 48.295C66.032 48.421 66.032 48.6249 66.1814 48.7509H66.1811L66.721 49.2063L65.6415 50.1177L65.1015 49.6622C64.9522 49.5362 64.7106 49.5362 64.5616 49.6622C64.4126 49.7878 64.4126 49.9916 64.5616 50.1177L65.1015 50.5731L64.0217 51.4844L63.4817 51.029C63.3327 50.903 63.0908 50.903 62.9418 51.029C62.7928 51.1545 62.7928 51.3589 62.9418 51.4844C62.9421 51.4849 62.9421 51.4849 62.9421 51.4849L63.4817 51.9403L62.4019 52.8517L61.8622 52.3957H61.862C61.7129 52.2702 61.4713 52.2702 61.322 52.3957C61.173 52.5218 61.173 52.7256 61.322 52.8517L61.862 53.3071L60.7821 54.2184L60.2424 53.763C60.0931 53.637 59.8515 53.637 59.7025 53.763C59.5535 53.8885 59.5532 54.0924 59.7025 54.2184C59.7025 54.2184 59.7025 54.2184 59.7028 54.2184L60.2424 54.6738L59.1626 55.5852L58.6229 55.1302L58.6226 55.1298C58.4736 55.0037 58.2317 55.0037 58.0827 55.1298C57.9337 55.2558 57.9337 55.4597 58.0827 55.5852L58.6226 56.0411L57.5587 56.9387L55.3993 55.1161L69.4047 43.2966L71.5642 45.1193ZM55.8464 43.6737H56.4789L55.8464 44.2079V43.6737ZM55.8464 45.4963V45.1188L57.5587 43.6737H58.0058L62.9418 47.8396L62.1296 48.5248L58.3198 45.3099C58.1708 45.1839 57.9289 45.1839 57.7799 45.3099C57.6309 45.4354 57.6309 45.6393 57.7799 45.7653L61.5896 48.9807L60.7823 49.6622L55.8464 45.4963Z" fill="white"/>
</g>
<g clip-path="url(#clip1_1077_121)">
<path d="M227.061 170.113L232.984 165.114L237.473 168.902C238.367 169.657 239.818 169.657 240.712 168.902C241.16 168.525 241.383 168.03 241.383 167.535C241.383 167.041 241.16 166.546 240.712 166.168L236.224 162.38L242.147 157.382L238.907 154.648L232.984 159.646L227.825 155.292H224.585V158.026L229.745 162.38L223.822 167.379L227.061 170.113ZM233.524 164.658L234.332 163.977L237.741 166.854L236.933 167.535L233.524 164.658ZM240.173 166.624C240.461 166.868 240.62 167.191 240.62 167.535C240.62 167.88 240.461 168.203 240.173 168.447C239.577 168.949 238.608 168.949 238.013 168.447L237.473 167.991L239.633 166.168L240.173 166.624ZM239.093 165.713L238.28 166.398L234.872 163.522L235.684 162.836L239.093 165.713ZM241.067 157.382L240.003 158.28L239.463 157.824C239.314 157.698 239.072 157.698 238.923 157.824C238.774 157.95 238.774 158.154 238.923 158.28C238.923 158.28 238.924 158.28 238.924 158.28L239.463 158.735L238.383 159.646L237.843 159.191C237.694 159.065 237.453 159.065 237.303 159.191C237.154 159.316 237.154 159.521 237.303 159.646C237.304 159.646 237.304 159.646 237.304 159.646L237.843 160.102L236.764 161.014L236.224 160.558C236.224 160.558 236.224 160.558 236.224 160.558C236.075 160.432 235.833 160.432 235.684 160.558C235.535 160.684 235.535 160.888 235.684 161.014H235.684L236.224 161.469L235.144 162.38L234.604 161.925C234.455 161.799 234.213 161.799 234.064 161.925C233.915 162.05 233.915 162.254 234.064 162.38L234.604 162.836L233.524 163.747L232.984 163.292C232.835 163.166 232.593 163.166 232.444 163.292C232.295 163.417 232.295 163.622 232.444 163.747C232.445 163.748 232.445 163.748 232.445 163.748L232.984 164.203L231.905 165.114L231.365 164.658H231.365C231.216 164.533 230.974 164.533 230.825 164.658C230.676 164.784 230.676 164.988 230.825 165.114L231.365 165.57L230.285 166.481L229.745 166.026C229.596 165.9 229.354 165.9 229.205 166.026C229.056 166.151 229.056 166.355 229.205 166.481C229.205 166.481 229.205 166.481 229.205 166.481L229.745 166.937L228.665 167.848L228.126 167.393L228.125 167.392C227.976 167.266 227.734 167.266 227.585 167.392C227.436 167.518 227.436 167.722 227.585 167.848L228.125 168.304L227.061 169.201L224.902 167.379L238.907 155.559L241.067 157.382ZM225.349 155.936H225.982L225.349 156.471V155.936ZM225.349 157.759V157.381L227.061 155.936H227.508L232.444 160.102L231.632 160.788L227.822 157.573C227.673 157.447 227.432 157.447 227.283 157.573C227.133 157.698 227.133 157.902 227.283 158.028L231.092 161.243L230.285 161.925L225.349 157.759Z" fill="url(#paint3_linear_1077_121)" style="mix-blend-mode:multiply"/>
</g>
<path d="M105.636 167.15L102.455 164.277C102.309 164.144 102.068 164.141 101.917 164.269C101.766 164.397 101.762 164.608 101.908 164.741L105.088 167.614C105.234 167.747 105.476 167.75 105.627 167.621C105.778 167.494 105.782 167.283 105.636 167.15Z" fill="url(#paint4_linear_1077_121)" style="mix-blend-mode:multiply"/>
<path d="M103.003 163.813L104.063 164.771C104.21 164.903 104.451 164.907 104.602 164.779C104.753 164.651 104.756 164.44 104.61 164.308L103.55 163.35C103.404 163.218 103.163 163.214 103.012 163.342C102.861 163.47 102.857 163.681 103.003 163.813Z" fill="url(#paint5_linear_1077_121)" style="mix-blend-mode:multiply"/>
<path d="M110.949 170.729L111.301 169.577L108.004 170.249L109.014 171.162L110.427 172.439L112.244 174.081L113.548 170.147L110.949 170.729ZM109.487 170.631L110.237 170.478L110.103 170.918L109.864 170.971L109.487 170.631ZM110.474 171.523L112.444 171.082L111.878 172.792L110.474 171.523Z" fill="url(#paint6_linear_1077_121)" style="mix-blend-mode:multiply"/>
<path d="M120.154 168.768L107.963 157.751C107.817 157.619 107.575 157.616 107.424 157.744L99.7622 164.238C99.6114 164.366 99.6076 164.577 99.7539 164.71L111.945 175.726C112.091 175.858 112.332 175.861 112.483 175.734L120.145 169.239C120.296 169.111 120.3 168.9 120.154 168.768ZM118.821 168.522L110.404 166.519C110.337 166.503 110.235 166.411 110.219 166.351L108.199 158.923L118.821 168.522ZM100.566 164.485L107.362 158.725L109.478 166.506C109.518 166.653 109.616 166.797 109.746 166.915C109.876 167.032 110.037 167.123 110.204 167.162L119.024 169.261L112.227 175.022L100.566 164.485Z" fill="url(#paint7_linear_1077_121)" style="mix-blend-mode:multiply"/>
<path d="M241.671 144.338C246.271 144.338 250 141.09 250 137.083C250 135.762 249.594 134.523 248.885 133.455C249.594 132.388 250 131.149 250 129.828C250 125.821 246.271 122.573 241.671 122.573C238.563 122.573 235.853 124.055 234.422 126.253C230.294 126.684 227.094 129.744 227.094 133.455C227.094 137.167 230.294 140.227 234.422 140.658C235.853 142.855 238.563 144.338 241.671 144.338ZM233.884 127.249C233.533 128.051 233.341 128.919 233.341 129.828C233.341 131.149 233.747 132.388 234.456 133.455C233.747 134.523 233.341 135.762 233.341 137.083C233.341 137.991 233.534 138.86 233.884 139.662C233.441 139.579 233.008 139.46 232.587 139.305C231.719 138.986 230.94 138.527 230.27 137.944C229.6 137.361 229.075 136.682 228.707 135.926C228.328 135.144 228.135 134.313 228.135 133.455C228.135 132.598 228.328 131.767 228.707 130.984C229.075 130.229 229.6 129.55 230.27 128.967C230.94 128.383 231.719 127.925 232.587 127.606C233.008 127.451 233.441 127.332 233.884 127.249ZM235.08 139.797C235.037 139.716 234.995 139.635 234.955 139.554C234.575 138.772 234.382 137.94 234.382 137.083C234.382 136.225 234.575 135.394 234.955 134.612C235.005 134.508 235.059 134.406 235.116 134.304C236.59 135.94 238.855 137.01 241.409 137.079C241.163 137.386 240.886 137.676 240.577 137.944C239.908 138.527 239.128 138.986 238.26 139.305C237.362 139.636 236.408 139.803 235.424 139.803C235.308 139.803 235.194 139.801 235.08 139.797ZM242.014 136.169C241.9 136.173 241.786 136.176 241.671 136.176C240.686 136.176 239.732 136.009 238.834 135.678C237.966 135.358 237.187 134.9 236.517 134.317C236.21 134.049 235.933 133.762 235.689 133.455C235.933 133.149 236.21 132.862 236.517 132.594C237.187 132.011 237.966 131.553 238.834 131.233C239.732 130.902 240.686 130.735 241.671 130.735C241.786 130.735 241.9 130.737 242.014 130.742C242.058 130.822 242.1 130.903 242.14 130.984C242.519 131.767 242.712 132.598 242.712 133.455C242.712 134.313 242.519 135.144 242.14 135.926C242.1 136.008 242.058 136.089 242.014 136.169ZM243.753 133.455C243.753 132.547 243.561 131.678 243.211 130.877C243.653 130.96 244.087 131.078 244.507 131.233C245.375 131.553 246.155 132.011 246.824 132.594C247.132 132.862 247.408 133.149 247.653 133.455C247.408 133.762 247.132 134.049 246.824 134.317C246.155 134.9 245.375 135.358 244.507 135.678C244.087 135.833 243.653 135.952 243.211 136.034C243.561 135.233 243.753 134.363 243.753 133.455ZM241.409 129.832C238.855 129.9 236.59 130.971 235.116 132.607C235.059 132.505 235.005 132.403 234.955 132.298C234.575 131.517 234.382 130.686 234.382 129.828C234.382 128.971 234.575 128.139 234.955 127.357C234.995 127.275 235.037 127.194 235.08 127.114C235.194 127.109 235.308 127.107 235.424 127.107C236.408 127.107 237.362 127.275 238.26 127.606C239.128 127.925 239.908 128.383 240.577 128.967C240.886 129.235 241.163 129.525 241.409 129.832ZM248.226 132.607C246.895 131.13 244.922 130.115 242.673 129.881C241.282 127.745 238.683 126.285 235.685 126.204C235.931 125.897 236.209 125.608 236.517 125.339C237.187 124.755 237.966 124.298 238.834 123.978C239.732 123.647 240.686 123.479 241.671 123.479C242.655 123.479 243.61 123.647 244.507 123.978C245.375 124.298 246.155 124.755 246.824 125.339C247.494 125.922 248.02 126.601 248.387 127.357C248.767 128.139 248.959 128.971 248.959 129.828C248.959 130.686 248.767 131.517 248.387 132.298C248.336 132.403 248.282 132.505 248.226 132.607ZM244.507 142.933C243.61 143.263 242.655 143.431 241.671 143.431C240.686 143.431 239.732 143.263 238.834 142.933C237.966 142.613 237.187 142.155 236.517 141.572C236.209 141.303 235.931 141.014 235.685 140.707C238.683 140.626 241.282 139.166 242.673 137.03C244.922 136.796 246.895 135.781 248.226 134.304C248.282 134.406 248.336 134.508 248.387 134.612C248.766 135.394 248.959 136.225 248.959 137.083C248.959 137.94 248.767 138.772 248.387 139.554C248.02 140.309 247.494 140.988 246.824 141.572C246.155 142.155 245.375 142.613 244.507 142.933Z" fill="url(#paint8_linear_1077_121)" style="mix-blend-mode:multiply"/>
<path d="M223.228 81.3623L219.921 85.5695L218.504 87.3726L215.197 91.5803L231.207 102.105L240.183 90.6851L223.228 81.3623ZM223.462 82.3521L224.875 83.1293L221.982 86.8099L220.608 85.983L223.462 82.3521ZM220.136 86.5844L222.882 88.2382L222.41 88.8391L219.663 87.1853L220.136 86.5844ZM219.191 87.7862L220.564 88.6131L217.671 92.2942L216.337 91.4171L219.191 87.7862ZM231.012 101.065L218.338 92.7328L221.251 89.0266L222.625 89.8535C222.814 89.9677 223.073 89.9259 223.204 89.76C223.334 89.594 223.287 89.3668 223.097 89.2526C223.287 89.3668 223.546 89.3246 223.677 89.1586C223.807 88.9927 223.759 88.7659 223.569 88.6517C223.759 88.7659 224.018 88.7237 224.149 88.5577C224.279 88.3918 224.232 88.1646 224.042 88.0504L222.668 87.2235L225.581 83.5177L239.004 90.8978L231.012 101.065Z" fill="white"/>
<path d="M227.157 90.0953L228.909 93.2773L226.864 93.1655L228.976 97.2208L230.214 95.6466L231.946 93.4429L234.173 90.6092L227.157 90.0953ZM229.124 95.7453L228.199 93.9692L229.324 94.0304L229.796 94.8895L229.124 95.7453L229.124 95.7453ZM230.341 94.1971L228.541 90.9287L232.672 91.2313L230.341 94.1971Z" fill="white"/>
<g clip-path="url(#clip2_1077_121)">
<path d="M150.762 230.99C152.234 230.99 153.427 229.946 153.427 228.657C153.427 228.485 153.406 228.317 153.365 228.155L155.132 226.609L159.926 230.805C160.757 231.532 162.103 231.532 162.933 230.805C163.349 230.442 163.556 229.965 163.556 229.489C163.556 229.013 163.349 228.537 162.933 228.173L158.139 223.977L163.6 219.198C163.876 218.956 164.015 218.638 164.015 218.321C164.015 218.003 163.876 217.686 163.6 217.443C163.046 216.959 162.149 216.959 161.595 217.443L156.134 222.223L150.969 217.702H147.962V220.334L153.127 224.854L151.376 226.387C151.179 226.346 150.973 226.324 150.762 226.324C147.743 226.324 147.504 230.22 147.504 231.509C147.504 232.797 149.29 230.99 150.762 230.99ZM162.847 229.489C162.847 229.821 162.7 230.132 162.432 230.366C161.88 230.85 160.98 230.85 160.427 230.366L159.926 229.928L161.931 228.173L162.432 228.612C162.7 228.846 162.847 229.157 162.847 229.489ZM162.096 217.882C162.372 217.64 162.822 217.64 163.099 217.882C163.232 217.999 163.306 218.155 163.306 218.321C163.306 218.486 163.232 218.642 163.099 218.76L157.638 223.538L156.636 222.661L162.096 217.882ZM148.671 218.323H149.258L148.671 218.836V218.323ZM148.671 220.077V219.714L150.261 218.323H150.676L161.43 227.734L160.676 228.394L150.967 219.898C150.829 219.776 150.604 219.776 150.466 219.898C150.328 220.018 150.328 220.215 150.466 220.336L160.175 228.833L159.425 229.489L148.671 220.077ZM153.628 225.293L154.631 226.17L153.089 227.52C152.854 227.152 152.51 226.846 152.094 226.636L153.628 225.293ZM148.672 228.632C148.88 228.092 149.151 227.676 149.477 227.395C149.828 227.092 150.248 226.945 150.762 226.945C151.284 226.945 151.776 227.123 152.145 227.446C152.515 227.77 152.718 228.2 152.718 228.657C152.718 229.602 151.841 230.37 150.762 230.37C149.955 230.37 149.168 230.746 148.536 231.049C148.441 231.094 148.327 231.149 148.217 231.199C148.237 230.53 148.331 229.519 148.672 228.632Z" fill="url(#paint9_linear_1077_121)" style="mix-blend-mode:multiply"/>
</g>
<g clip-path="url(#clip3_1077_121)">
<path d="M175.754 179.67L166.873 207.102L173.604 208.771L182.485 181.339L175.754 179.67ZM168.312 206.399L168.939 204.464L170.061 204.743C170.371 204.819 170.693 204.662 170.781 204.391C170.868 204.12 170.688 203.838 170.379 203.76C170.378 203.761 170.378 203.761 170.378 203.761L169.257 203.483L169.893 201.519L171.014 201.797C171.324 201.874 171.646 201.716 171.734 201.445C171.822 201.174 171.642 200.892 171.332 200.815L170.21 200.537L170.846 198.573L171.968 198.851L171.968 198.852C172.277 198.928 172.6 198.771 172.688 198.5C172.775 198.228 172.596 197.946 172.286 197.87C172.285 197.869 172.285 197.869 172.285 197.869L171.164 197.591L171.8 195.628L172.921 195.906C173.231 195.983 173.553 195.825 173.642 195.554C173.729 195.283 173.549 195.001 173.24 194.924L172.117 194.646L172.753 192.682L173.875 192.961C174.185 193.038 174.507 192.88 174.595 192.609C174.683 192.338 174.503 192.056 174.193 191.979L173.071 191.701L173.707 189.737L174.829 190.015C175.138 190.092 175.461 189.934 175.548 189.664C175.636 189.392 175.456 189.11 175.146 189.034C175.146 189.033 175.146 189.033 175.146 189.033L174.025 188.755L174.661 186.791L175.782 187.07C176.092 187.146 176.414 186.989 176.502 186.718C176.59 186.447 176.41 186.165 176.1 186.088C176.1 186.088 176.1 186.088 176.1 186.088L174.978 185.81L175.614 183.846L176.735 184.124C176.735 184.124 176.735 184.124 176.735 184.124C177.045 184.201 177.367 184.044 177.456 183.772C177.544 183.501 177.364 183.219 177.054 183.142L175.932 182.864L176.558 180.93L181.046 182.042L172.8 207.511L168.312 206.399Z" fill="url(#paint10_linear_1077_121)" style="mix-blend-mode:multiply"/>
</g>
<path d="M231.163 201.755L242.554 193.709C242.69 193.613 242.712 193.437 242.601 193.318L236.206 186.383C236.096 186.263 235.895 186.244 235.759 186.341L231.649 189.244L230.747 187.734L230.846 187.664C230.982 187.568 231.003 187.392 230.893 187.272C230.783 187.153 230.582 187.134 230.446 187.231L226.484 190.029C226.347 190.126 226.326 190.301 226.436 190.421C226.546 190.54 226.747 190.559 226.883 190.463L226.983 190.393L228.478 191.483L224.368 194.387C224.232 194.483 224.21 194.658 224.321 194.778L230.716 201.713C230.826 201.833 231.026 201.851 231.163 201.755ZM230.241 188.091L231.143 189.598L228.982 191.125L227.488 190.036L230.241 188.091L230.241 188.091ZM231.011 201.146L225.815 195.512L236.71 187.816L241.906 193.451L231.011 201.146ZM230.463 190.797L235.91 186.949L236.31 187.383L230.863 191.23L225.416 195.078L225.016 194.645L230.463 190.797Z" fill="url(#paint11_linear_1077_121)" style="mix-blend-mode:multiply"/>
<path d="M230.416 191.188C230.526 191.308 230.726 191.327 230.863 191.23C230.999 191.134 231.02 190.959 230.91 190.839C230.8 190.72 230.6 190.701 230.463 190.797C230.327 190.894 230.306 191.069 230.416 191.188Z" fill="url(#paint12_linear_1077_121)" style="mix-blend-mode:multiply"/>
<path d="M240.364 193.109L232.936 198.356C232.936 198.356 232.936 198.356 232.935 198.357C232.799 198.453 232.777 198.628 232.888 198.748C232.998 198.868 233.199 198.886 233.335 198.79L240.763 193.543C240.901 193.446 240.922 193.271 240.812 193.151C240.701 193.031 240.501 193.013 240.364 193.109Z" fill="url(#paint13_linear_1077_121)" style="mix-blend-mode:multiply"/>
<path d="M239.564 192.243L235.603 195.041C235.603 195.041 235.603 195.041 235.603 195.041C235.466 195.138 235.445 195.313 235.555 195.433C235.665 195.552 235.865 195.571 236.002 195.475L239.964 192.676C240.101 192.579 240.122 192.404 240.012 192.284C239.902 192.165 239.701 192.146 239.564 192.243Z" fill="url(#paint14_linear_1077_121)" style="mix-blend-mode:multiply"/>
<path d="M238.765 191.374L233.318 195.222C233.317 195.222 233.317 195.222 233.317 195.222C233.181 195.318 233.159 195.494 233.27 195.613C233.38 195.733 233.58 195.752 233.717 195.655L239.164 191.808C239.302 191.711 239.323 191.535 239.213 191.416C239.102 191.296 238.902 191.277 238.765 191.374Z" fill="url(#paint15_linear_1077_121)" style="mix-blend-mode:multiply"/>
<path d="M237.966 190.508L234.5 192.957C234.363 193.054 234.341 193.229 234.451 193.349C234.562 193.468 234.762 193.487 234.899 193.39L238.366 190.942C238.503 190.845 238.524 190.669 238.414 190.55C238.303 190.43 238.103 190.412 237.966 190.508Z" fill="url(#paint16_linear_1077_121)" style="mix-blend-mode:multiply"/>
<path d="M237.166 189.641L230.728 194.189L230.728 194.188C230.591 194.285 230.569 194.461 230.68 194.58C230.79 194.7 230.991 194.719 231.128 194.622L237.565 190.075C237.702 189.978 237.724 189.802 237.614 189.683C237.503 189.563 237.303 189.545 237.166 189.641Z" fill="url(#paint17_linear_1077_121)" style="mix-blend-mode:multiply"/>
<path d="M236.367 188.774L234.386 190.173C234.249 190.27 234.228 190.446 234.338 190.565C234.448 190.685 234.649 190.704 234.786 190.607L236.767 189.208C236.904 189.111 236.925 188.936 236.815 188.816C236.704 188.696 236.504 188.678 236.367 188.774Z" fill="url(#paint18_linear_1077_121)" style="mix-blend-mode:multiply"/>
<path d="M149.795 150.475L152.413 148.298L143.899 145.821L144.737 149.107L145.909 153.707L147.416 159.621L156.589 152.312L149.795 150.475ZM145.59 147.459L150.055 148.758L148.434 150.107L146.104 149.477L145.59 147.459ZM146.416 150.699L154.144 152.789L148.163 157.556L146.416 150.699Z" fill="white"/>
<path d="M166.179 155.959L167.418 155.717C167.76 155.65 167.976 155.359 167.902 155.066C167.827 154.772 167.489 154.589 167.147 154.655L165.908 154.897L165.367 152.774L166.606 152.532C166.948 152.465 167.165 152.174 167.09 151.881C167.015 151.587 166.678 151.404 166.336 151.471L165.097 151.712L164.556 149.589L165.794 149.348C166.137 149.281 166.353 148.989 166.278 148.696C166.204 148.402 165.866 148.219 165.524 148.286L164.285 148.528L163.744 146.405L164.983 146.163C165.325 146.096 165.542 145.804 165.467 145.511C165.392 145.218 165.054 145.034 164.712 145.101L163.473 145.343L162.932 143.22L164.171 142.978C164.513 142.911 164.73 142.619 164.655 142.326C164.58 142.033 164.243 141.849 163.901 141.916L162.662 142.158L161.85 138.973L134.596 144.293L139.736 164.464L166.99 159.144L166.179 155.959ZM140.679 163.165L136.08 145.118L160.907 140.272L161.448 142.395L160.262 142.626C159.919 142.693 159.702 142.985 159.777 143.278C159.852 143.572 160.19 143.755 160.532 143.688L161.719 143.456L162.26 145.58L161.073 145.811C160.731 145.878 160.514 146.17 160.589 146.463C160.664 146.756 161.002 146.94 161.344 146.873L162.531 146.641L163.072 148.764L161.885 148.996C161.543 149.063 161.326 149.355 161.401 149.648C161.475 149.941 161.813 150.125 162.155 150.058L163.342 149.826L163.883 151.949L162.696 152.181C162.354 152.248 162.137 152.539 162.212 152.833C162.287 153.126 162.625 153.309 162.967 153.242L164.154 153.011L164.695 155.134L163.508 155.366C163.166 155.433 162.949 155.724 163.024 156.018C163.099 156.311 163.437 156.494 163.779 156.427L164.966 156.195L165.507 158.319L140.679 163.165Z" fill="white"/>
<path d="M214.375 162.226L201.283 149.203C201.125 149.047 200.853 149.031 200.675 149.169L190.323 157.14C190.145 157.278 190.127 157.516 190.285 157.672L195.008 162.371L192.727 163.527L192.613 163.413C192.456 163.257 192.183 163.242 192.004 163.379C191.826 163.517 191.809 163.755 191.966 163.912L196.52 168.441C196.677 168.598 196.949 168.613 197.128 168.475C197.306 168.338 197.324 168.1 197.167 167.943L197.053 167.83L198.652 165.996L203.377 170.695C203.534 170.852 203.806 170.867 203.985 170.729L214.336 162.758C214.515 162.62 214.532 162.382 214.375 162.226ZM193.307 164.104L195.586 162.95L198.071 165.42L196.473 167.253L193.307 164.104L193.307 164.104ZM210.209 164.932L208.501 163.233L211.736 160.743L213.443 162.441L210.209 164.932ZM207.854 163.732L209.562 165.43L205.033 168.917L203.325 167.219L207.854 163.732ZM211.167 160.176L202.756 166.653L192.51 156.461L200.92 149.985L211.167 160.176ZM197.477 163.685L191.216 157.457L191.863 156.959L198.124 163.187L204.386 169.416L203.739 169.914L197.477 163.685Z" fill="url(#paint19_linear_1077_121)" style="mix-blend-mode:multiply"/>
<path d="M198.086 163.719C198.264 163.581 198.282 163.343 198.124 163.187C197.967 163.03 197.695 163.015 197.517 163.153C197.338 163.29 197.32 163.529 197.477 163.685C197.635 163.842 197.907 163.856 198.086 163.719Z" fill="url(#paint20_linear_1077_121)" style="mix-blend-mode:multiply"/>
<path d="M200.552 159.882L202.504 161.824L204.22 157.441L201.247 157.975L201.716 156.69L197.95 157.294L199.034 158.372L200.552 159.882ZM202.916 158.445L202.17 160.35L200.662 158.85L202.916 158.445ZM199.603 157.796L200.458 157.659L200.28 158.149L200.007 158.198L199.603 157.796Z" fill="url(#paint21_linear_1077_121)" style="mix-blend-mode:multiply"/>
<path d="M201.904 153.245L201.335 152.679L200.688 153.177L201.257 153.744L201.904 153.245Z" fill="url(#paint22_linear_1077_121)" style="mix-blend-mode:multiply"/>
<path d="M205.034 156.359L204.465 155.793L203.818 156.291L204.387 156.857L205.034 156.359Z" fill="url(#paint23_linear_1077_121)" style="mix-blend-mode:multiply"/>
<path d="M208.165 159.473L207.596 158.907L206.948 159.405L207.518 159.971L208.165 159.473Z" fill="url(#paint24_linear_1077_121)" style="mix-blend-mode:multiply"/>
<path d="M205.577 161.466L205.008 160.9L204.361 161.398L204.93 161.964L205.577 161.466Z" fill="url(#paint25_linear_1077_121)" style="mix-blend-mode:multiply"/>
<path d="M202.99 163.46L202.42 162.893L201.773 163.391L202.343 163.958L202.99 163.46Z" fill="url(#paint26_linear_1077_121)" style="mix-blend-mode:multiply"/>
<path d="M196.727 157.231L196.158 156.665L195.511 157.163L196.08 157.729L196.727 157.231Z" fill="url(#paint27_linear_1077_121)" style="mix-blend-mode:multiply"/>
<path d="M199.315 155.239L198.746 154.673L198.1 155.171L198.669 155.737L199.315 155.239Z" fill="url(#paint28_linear_1077_121)" style="mix-blend-mode:multiply"/>
<path d="M199.858 160.346L199.289 159.78L198.642 160.278L199.211 160.844L199.858 160.346Z" fill="url(#paint29_linear_1077_121)" style="mix-blend-mode:multiply"/>
<mask id="path-47-inside-1_1077_121" fill="white">
<ellipse cx="188.154" cy="235.122" rx="8.87794" ry="10.144" transform="rotate(90 188.154 235.122)"/>
</mask>
<path d="M188.154 234C187.705 234 187.527 233.84 187.567 233.875C187.594 233.898 187.702 234.002 187.811 234.226C187.926 234.464 188.01 234.779 188.01 235.122H168.01C168.01 246.759 178.323 254 188.154 254V234ZM188.01 235.122C188.01 235.465 187.926 235.78 187.811 236.018C187.702 236.242 187.594 236.346 187.567 236.369C187.527 236.404 187.705 236.244 188.154 236.244V216.244C178.323 216.244 168.01 223.485 168.01 235.122H188.01ZM188.154 236.244C188.603 236.244 188.781 236.404 188.741 236.369C188.714 236.346 188.606 236.242 188.497 236.018C188.382 235.78 188.298 235.465 188.298 235.122H208.298C208.298 223.485 197.985 216.244 188.154 216.244V236.244ZM188.298 235.122C188.298 234.779 188.382 234.464 188.497 234.226C188.606 234.002 188.714 233.898 188.741 233.875C188.781 233.84 188.603 234 188.154 234V254C197.985 254 208.298 246.759 208.298 235.122H188.298Z" fill="url(#paint30_linear_1077_121)" style="mix-blend-mode:multiply" mask="url(#path-47-inside-1_1077_121)"/>
<path d="M79.9689 188.441H82.5298V185.035H87.0419V182.683H82.5298V179.277H79.9689V182.683H75.2618V185.035H79.9689V188.441Z" fill="white"/>
<path d="M58.9005 211.622C59.8864 211.622 68.2916 209.271 65.334 218.443C62.3765 227.615 67.3057 230.437 76.8057 232.319C86.3056 234.2 87.2018 239.688 87.0226 244" stroke="url(#paint31_linear_1077_121)" stroke-width="8" stroke-linecap="round" stroke-linejoin="round" style="mix-blend-mode:multiply"/>
<path d="M220.694 236.667C220.518 236.363 218.071 234.198 222.268 233.471C226.465 232.743 226.71 230.724 225.76 227.467C224.81 224.209 226.843 222.954 228.599 222.24" stroke="url(#paint32_linear_1077_121)" stroke-width="8" stroke-linecap="round" stroke-linejoin="round" style="mix-blend-mode:multiply"/>
<mask id="path-52-inside-2_1077_121" fill="white">
<ellipse cx="8.5079" cy="7.44601" rx="7.44601" ry="8.50785" transform="rotate(90 8.5079 7.44601)"/>
</mask>
<path d="M8.5079 4.89202C8.51037 4.89202 8.74185 4.89206 9.07781 5.18609C9.4335 5.49739 10.0001 6.27333 10.0001 7.44601L-9.99995 7.44601C-9.99995 18.2918 -0.419844 24.892 8.5079 24.892L8.5079 4.89202ZM10.0001 7.44601C10.0001 8.6187 9.4335 9.39464 9.07781 9.70593C8.74185 9.99996 8.51037 10 8.5079 10L8.5079 -10C-0.419844 -10 -9.99995 -3.39976 -9.99995 7.44601L10.0001 7.44601ZM8.5079 10C8.50543 10 8.27394 9.99996 7.93799 9.70593C7.5823 9.39464 7.01575 8.6187 7.01575 7.44601L27.0157 7.44601C27.0157 -3.39976 17.4356 -10 8.5079 -10L8.5079 10ZM7.01575 7.44601C7.01575 6.27333 7.5823 5.49739 7.93799 5.18609C8.27394 4.89206 8.50543 4.89202 8.5079 4.89202L8.5079 24.892C17.4356 24.892 27.0157 18.2918 27.0157 7.44601L7.01575 7.44601Z" fill="white" mask="url(#path-52-inside-2_1077_121)"/>
<defs>
<linearGradient id="paint0_linear_1077_121" x1="212.143" y1="133.195" x2="206.226" y2="110.259" gradientUnits="userSpaceOnUse">
<stop stop-color="#FFC000"/>
<stop offset="1" stop-color="#FF8A00"/>
</linearGradient>
<linearGradient id="paint1_linear_1077_121" x1="129.298" y1="195.072" x2="151.819" y2="196.02" gradientUnits="userSpaceOnUse">
<stop stop-color="#FFC000"/>
<stop offset="1" stop-color="#FF8A00"/>
</linearGradient>
<linearGradient id="paint2_linear_1077_121" x1="137.406" y1="192.331" x2="144.683" y2="191.998" gradientUnits="userSpaceOnUse">
<stop stop-color="#FFC000"/>
<stop offset="1" stop-color="#FF8A00"/>
</linearGradient>
<linearGradient id="paint3_linear_1077_121" x1="241.704" y1="169.912" x2="237.283" y2="152.141" gradientUnits="userSpaceOnUse">
<stop stop-color="#FFC000"/>
<stop offset="1" stop-color="#FF8A00"/>
</linearGradient>
<linearGradient id="paint4_linear_1077_121" x1="105.839" y1="167.357" x2="103.22" y2="168.342" gradientUnits="userSpaceOnUse">
<stop stop-color="#FFC000"/>
<stop offset="1" stop-color="#FF8A00"/>
</linearGradient>
<linearGradient id="paint5_linear_1077_121" x1="104.841" y1="164.54" x2="102.763" y2="164.357" gradientUnits="userSpaceOnUse">
<stop stop-color="#FFC000"/>
<stop offset="1" stop-color="#FF8A00"/>
</linearGradient>
<linearGradient id="paint6_linear_1077_121" x1="115.038" y1="171.617" x2="108.994" y2="168.817" gradientUnits="userSpaceOnUse">
<stop stop-color="#FFC000"/>
<stop offset="1" stop-color="#FF8A00"/>
</linearGradient>
<linearGradient id="paint7_linear_1077_121" x1="120.055" y1="169.026" x2="101.866" y2="161.186" gradientUnits="userSpaceOnUse">
<stop stop-color="#FFC000"/>
<stop offset="1" stop-color="#FF8A00"/>
</linearGradient>
<linearGradient id="paint8_linear_1077_121" x1="249.446" y1="144.055" x2="242.549" y2="119.428" gradientUnits="userSpaceOnUse">
<stop stop-color="#FFC000"/>
<stop offset="1" stop-color="#FF8A00"/>
</linearGradient>
<linearGradient id="paint9_linear_1077_121" x1="163.616" y1="231.779" x2="159.104" y2="214.806" gradientUnits="userSpaceOnUse">
<stop stop-color="#FFC000"/>
<stop offset="1" stop-color="#FF8A00"/>
</linearGradient>
<linearGradient id="paint10_linear_1077_121" x1="180.086" y1="178.231" x2="160.263" y2="201.362" gradientUnits="userSpaceOnUse">
<stop stop-color="#FFC000"/>
<stop offset="1" stop-color="#FF8A00"/>
</linearGradient>
<linearGradient id="paint11_linear_1077_121" x1="230.867" y1="201.6" x2="238.657" y2="187.616" gradientUnits="userSpaceOnUse">
<stop stop-color="#FFC000"/>
<stop offset="1" stop-color="#FF8A00"/>
</linearGradient>
<linearGradient id="paint12_linear_1077_121" x1="230.612" y1="191.39" x2="230.963" y2="190.811" gradientUnits="userSpaceOnUse">
<stop stop-color="#FFC000"/>
<stop offset="1" stop-color="#FF8A00"/>
</linearGradient>
<linearGradient id="paint13_linear_1077_121" x1="233.181" y1="198.882" x2="232.242" y2="196.769" gradientUnits="userSpaceOnUse">
<stop stop-color="#FFC000"/>
<stop offset="1" stop-color="#FF8A00"/>
</linearGradient>
<linearGradient id="paint14_linear_1077_121" x1="235.803" y1="195.598" x2="235.198" y2="193.501" gradientUnits="userSpaceOnUse">
<stop stop-color="#FFC000"/>
<stop offset="1" stop-color="#FF8A00"/>
</linearGradient>
<linearGradient id="paint15_linear_1077_121" x1="233.537" y1="195.765" x2="232.746" y2="193.648" gradientUnits="userSpaceOnUse">
<stop stop-color="#FFC000"/>
<stop offset="1" stop-color="#FF8A00"/>
</linearGradient>
<linearGradient id="paint16_linear_1077_121" x1="234.693" y1="193.519" x2="234.174" y2="191.44" gradientUnits="userSpaceOnUse">
<stop stop-color="#FFC000"/>
<stop offset="1" stop-color="#FF8A00"/>
</linearGradient>
<linearGradient id="paint17_linear_1077_121" x1="230.96" y1="194.723" x2="230.085" y2="192.606" gradientUnits="userSpaceOnUse">
<stop stop-color="#FFC000"/>
<stop offset="1" stop-color="#FF8A00"/>
</linearGradient>
<linearGradient id="paint18_linear_1077_121" x1="234.561" y1="190.749" x2="234.422" y2="188.844" gradientUnits="userSpaceOnUse">
<stop stop-color="#FFC000"/>
<stop offset="1" stop-color="#FF8A00"/>
</linearGradient>
<linearGradient id="paint19_linear_1077_121" x1="214.153" y1="162.585" x2="194.923" y2="149.878" gradientUnits="userSpaceOnUse">
<stop stop-color="#FFC000"/>
<stop offset="1" stop-color="#FF8A00"/>
</linearGradient>
<linearGradient id="paint20_linear_1077_121" x1="198.386" y1="163.475" x2="197.601" y2="162.909" gradientUnits="userSpaceOnUse">
<stop stop-color="#FFC000"/>
<stop offset="1" stop-color="#FF8A00"/>
</linearGradient>
<linearGradient id="paint21_linear_1077_121" x1="205.812" y1="159.172" x2="199.184" y2="155.672" gradientUnits="userSpaceOnUse">
<stop stop-color="#FFC000"/>
<stop offset="1" stop-color="#FF8A00"/>
</linearGradient>
<linearGradient id="paint22_linear_1077_121" x1="201.881" y1="153.25" x2="201.096" y2="152.684" gradientUnits="userSpaceOnUse">
<stop stop-color="#FFC000"/>
<stop offset="1" stop-color="#FF8A00"/>
</linearGradient>
<linearGradient id="paint23_linear_1077_121" x1="205.011" y1="156.364" x2="204.227" y2="155.798" gradientUnits="userSpaceOnUse">
<stop stop-color="#FFC000"/>
<stop offset="1" stop-color="#FF8A00"/>
</linearGradient>
<linearGradient id="paint24_linear_1077_121" x1="208.142" y1="159.478" x2="207.357" y2="158.912" gradientUnits="userSpaceOnUse">
<stop stop-color="#FFC000"/>
<stop offset="1" stop-color="#FF8A00"/>
</linearGradient>
<linearGradient id="paint25_linear_1077_121" x1="205.554" y1="161.471" x2="204.769" y2="160.905" gradientUnits="userSpaceOnUse">
<stop stop-color="#FFC000"/>
<stop offset="1" stop-color="#FF8A00"/>
</linearGradient>
<linearGradient id="paint26_linear_1077_121" x1="202.967" y1="163.464" x2="202.181" y2="162.899" gradientUnits="userSpaceOnUse">
<stop stop-color="#FFC000"/>
<stop offset="1" stop-color="#FF8A00"/>
</linearGradient>
<linearGradient id="paint27_linear_1077_121" x1="196.704" y1="157.236" x2="195.92" y2="156.67" gradientUnits="userSpaceOnUse">
<stop stop-color="#FFC000"/>
<stop offset="1" stop-color="#FF8A00"/>
</linearGradient>
<linearGradient id="paint28_linear_1077_121" x1="199.292" y1="155.244" x2="198.508" y2="154.678" gradientUnits="userSpaceOnUse">
<stop stop-color="#FFC000"/>
<stop offset="1" stop-color="#FF8A00"/>
</linearGradient>
<linearGradient id="paint29_linear_1077_121" x1="199.835" y1="160.351" x2="199.05" y2="159.785" gradientUnits="userSpaceOnUse">
<stop stop-color="#FFC000"/>
<stop offset="1" stop-color="#FF8A00"/>
</linearGradient>
<linearGradient id="paint30_linear_1077_121" x1="197.807" y1="243.769" x2="192.567" y2="223.455" gradientUnits="userSpaceOnUse">
<stop stop-color="#FFC000"/>
<stop offset="1" stop-color="#FF8A00"/>
</linearGradient>
<linearGradient id="paint31_linear_1077_121" x1="86.3613" y1="243.576" x2="74.1652" y2="207.908" gradientUnits="userSpaceOnUse">
<stop stop-color="#FFC000"/>
<stop offset="1" stop-color="#FF8A00"/>
</linearGradient>
<linearGradient id="paint32_linear_1077_121" x1="228.548" y1="222.519" x2="219.073" y2="234.663" gradientUnits="userSpaceOnUse">
<stop stop-color="#FFC000"/>
<stop offset="1" stop-color="#FF8A00"/>
</linearGradient>
<clipPath id="clip0_1077_121">
<rect width="15.4648" height="18.3246" fill="white" transform="translate(72.644 42.3853) rotate(90)"/>
</clipPath>
<clipPath id="clip1_1077_121">
<rect width="15.4648" height="18.3246" fill="white" transform="translate(242.147 154.648) rotate(90)"/>
</clipPath>
<clipPath id="clip2_1077_121">
<rect width="14.892" height="17.0157" fill="white" transform="translate(164.267 217.081) rotate(90)"/>
</clipPath>
<clipPath id="clip3_1077_121">
<rect width="27.1937" height="25.3646" fill="white" transform="matrix(0.898438 -0.439101 0.537899 0.84301 155.642 189.5)"/>
</clipPath>
</defs>
</svg>
